<svg width="19" height="21" viewBox="0 0 19 21" fill="none" xmlns="http://www.w3.org/2000/svg">
<path d="M4.20076 7.09492H14.7991V15.7314C14.7991 16.2445 14.3831 16.6605 13.8707 16.6605H12.8091V19.2907C12.8091 19.9587 12.2764 20.5 11.6187 20.5C10.9594 20.5 10.4274 19.9587 10.4274 19.2907V16.6605H8.57336V19.2907C8.57336 19.9587 8.03954 20.5 7.38193 20.5C6.72444 20.5 6.19066 19.9587 6.19066 19.2907V16.6605H5.13003C4.61747 16.6605 4.20072 16.2445 4.20072 15.7314L4.20076 7.09492ZM2.12385 7.02443C1.45951 7.02443 0.921387 7.57093 0.921387 8.24557V13.018C0.921387 13.6919 1.45951 14.2393 2.12385 14.2393C2.78831 14.2393 3.32632 13.6919 3.32632 13.018V8.24557C3.32632 7.57093 2.78831 7.02443 2.12385 7.02443ZM14.7991 6.22463H4.20076C4.33156 4.71473 5.31101 3.41539 6.72099 2.66307L5.71332 1.18346C5.57743 0.983928 5.6287 0.711678 5.82862 0.575827C6.02831 0.439976 6.30001 0.491639 6.43657 0.691013L7.53485 2.30479C8.14377 2.09422 8.80475 1.97332 9.49993 1.97332C10.1959 1.97332 10.857 2.09422 11.4658 2.30506L12.5641 0.6916C12.699 0.491678 12.9716 0.440015 13.1712 0.575866C13.3712 0.711717 13.4224 0.983967 13.2865 1.1835L12.2797 2.66311C13.6896 3.41496 14.6684 4.7143 14.7991 6.22463ZM7.85081 4.17301C7.85081 3.84921 7.58862 3.58659 7.26494 3.58659C6.94044 3.58659 6.67825 3.84921 6.67825 4.17301C6.67825 4.49665 6.9413 4.75915 7.26494 4.75915C7.58858 4.75915 7.85081 4.49665 7.85081 4.17301ZM12.3959 4.17301C12.3959 3.84921 12.1328 3.58659 11.8092 3.58659C11.4847 3.58659 11.2233 3.84921 11.2233 4.17301C11.2233 4.49665 11.4847 4.75915 11.8092 4.75915C12.1328 4.75915 12.3959 4.49665 12.3959 4.17301ZM16.8768 7.02275C16.2132 7.02275 15.6735 7.57007 15.6735 8.24475V13.0189C15.6735 13.6936 16.2132 14.2411 16.8768 14.2411C17.5413 14.2411 18.0784 13.6936 18.0784 13.0189V8.24475C18.0785 7.57007 17.5413 7.02275 16.8768 7.02275Z" fill="#4D4D4D"/>
</svg>
