<svg width="17" height="21" viewBox="0 0 17 21" fill="none" xmlns="http://www.w3.org/2000/svg">
<path fill-rule="evenodd" clip-rule="evenodd" d="M11.5709 3.69296C12.3 2.84797 12.7914 1.67107 12.6569 0.500092C11.6063 0.540092 10.3352 1.17124 9.58186 2.01523C8.90537 2.76422 8.31484 3.96099 8.47359 5.10898C9.64557 5.19597 10.8418 4.53894 11.5709 3.69296ZM14.199 11.1251C14.2283 14.1521 16.9697 15.159 17 15.172C16.9778 15.243 16.5622 16.6067 15.556 18.0167C14.6854 19.2347 13.7824 20.4477 12.3596 20.4737C10.9621 20.4987 10.5122 19.6798 8.91346 19.6798C7.31577 19.6798 6.81624 20.4476 5.4936 20.4986C4.12039 20.5476 3.0738 19.1809 2.1971 17.9669C0.403235 15.4839 -0.966935 10.9502 0.873443 7.89023C1.78756 6.37125 3.42064 5.40788 5.19428 5.38388C6.54221 5.35888 7.81531 6.25302 8.63943 6.25302C9.46356 6.25302 11.0107 5.17803 12.6367 5.33603C13.3172 5.36303 15.2284 5.59895 16.455 7.31992C16.3559 7.37892 14.1747 8.59513 14.199 11.1251Z" fill="#4D4D4D"/>
</svg>
