<svg width="70" height="76" viewBox="0 0 70 76" fill="none" xmlns="http://www.w3.org/2000/svg">
<path d="M47.6795 54.0581L51.5371 57.3176L58.2356 49.4229L50.3409 42.7244L47.0515 46.5821L47.6795 54.0581Z" fill="#FF7E00"/>
<path d="M69.7187 59.0819L54.8564 59.052L54.8265 74.2134H64.964L69.7187 69.0699V59.0819Z" fill="#FF7E00"/>
<path d="M42.8649 75.0208L47.8888 73.5256L43.3733 58.3941L32.6377 61.5939L30.5445 70.6249L42.8649 75.0208Z" fill="#FF7E00"/>
<path d="M32.5181 8.7535C20.8855 1.93539 14.7851 1.72606 4.22895 0.5L3.8402 2.47366C16.9681 5.52387 20.2874 8.60398 29.2885 14.0764L30.5445 20.0273L0.76009 69.0998C0.46105 69.6979 0.281626 70.3258 0.281626 71.0435C0.251722 73.4658 2.16558 75.4693 4.5878 75.4992C6.17271 75.5291 7.5782 74.6918 8.38561 73.4359L37.6915 25.4997L49.6232 33.1253L55.7535 23.0177L32.5181 8.7535Z" fill="#FF7E00"/>
</svg>
