<svg width="2500" height="747" viewBox="0 0 2500 747" fill="none" xmlns="http://www.w3.org/2000/svg">
<g clip-path="url(#clip0_129_400)">
<path fill-rule="evenodd" clip-rule="evenodd" d="M373.644 0C167.407 0 0.191895 167.153 0.191895 373.452C0.191895 579.69 167.407 747 373.644 747C579.879 747 747.192 579.69 747.192 373.452C747.192 167.15 579.879 0 373.644 0ZM396.168 156.246L341.627 145.893L331.575 199.094L248.278 183.374L239.938 227.946L252.686 230.534C261.167 231.85 266.823 233.798 269.461 235.997C272.225 237.945 273.979 240.488 274.734 243.378C275.485 246.267 274.927 252.549 273.105 261.972L239.554 441.603C237.855 450.901 236.103 456.885 234.281 459.336C232.518 461.722 230.131 463.44 226.803 464.32C223.472 465.455 217.647 465.06 209.166 463.363L196.418 460.968L188.078 505.54L271.28 521.165L261.406 574.267L315.947 584.426L325.821 531.419L356.973 537.17C358.353 537.422 359.614 537.499 360.998 537.937L351.029 591.04L405.57 601.104L416.4 543.685C425.759 543.56 434.228 542.704 441.706 541.385C461.929 537.489 478.64 529.186 491.646 516.558C504.584 504.307 512.691 489.522 515.897 472.369C518.532 457.986 517.602 444.447 513.02 431.631C508.373 418.629 500.891 407.902 490.591 399.234C483.493 393.077 472.641 386.657 458.384 380.063C473.27 377.863 485.745 373.928 495.671 368.275C505.658 362.557 513.829 355.315 520.114 346.708C526.458 337.849 530.623 328.12 532.574 317.568C535.396 302.995 533.74 288.732 527.396 274.913C520.986 261.092 510.302 249.472 495.667 239.733C490.073 235.902 482.941 232.746 475.153 229.669L485.794 172.923L431.253 162.764L421.284 215.771L386.199 209.158L396.168 156.246Z" fill="#FF7E00"/>
<path d="M356.39 257.273L341.725 335.779L377.095 342.49C395.499 345.883 409.496 346.812 418.983 345.368C428.403 344.049 435.789 340.61 441.51 335.208C446.973 329.933 450.737 323.022 452.246 314.792C453.878 306.311 453.148 298.762 449.945 291.977C446.93 285.318 441.599 280.017 433.937 275.683C426.458 271.726 412.49 267.726 391.76 263.892L356.39 257.273Z" fill="#FF7E00"/>
<path fill-rule="evenodd" clip-rule="evenodd" d="M839.787 308.081L896.055 26.7444H978.49L945.516 185.291H946.761C967.178 160.795 998.407 145.992 1032.46 145.992C1090.44 145.992 1116.52 193.303 1116.52 242.804C1116.52 333.138 1057.46 436.527 932.384 436.527C866.485 436.527 833.557 408.071 833.557 358.692C833.557 341.607 836.394 324.54 839.787 308.081ZM1203.08 77.8345C1203.58 50.0687 1225.17 31.4406 1250.24 31.4406C1273.99 31.4406 1291.08 47.2621 1291.08 71.6998C1291.08 100.659 1268.96 117.71 1242.77 117.71C1220.09 117.71 1203.02 102.334 1203.08 77.8345ZM2108.24 77.8345C2108.74 50.0687 2130.53 31.4406 2155.4 31.4406C2179.34 31.4406 2196.33 47.2621 2196.33 71.6998C2196.33 100.659 2174.16 117.71 2148.02 117.71C2125.34 117.71 2108.18 102.334 2108.24 77.8345ZM1363.45 93.8432L1446.84 74.577L1432.07 152.316H1491.12L1479.24 214.336H1420.28L1401.4 308.562C1399.2 320.059 1396.8 334.288 1396.8 343.837C1396.8 357.594 1402.57 367.131 1420.28 367.131C1427.51 367.131 1435.43 367.109 1442.91 365.98L1433.32 430.202C1422.96 434.22 1402.54 436.527 1385.01 436.527C1336.27 436.527 1312.83 411.549 1312.83 376.808C1312.83 361.48 1314.53 346.122 1318.49 325.141L1340.15 214.333H1304.97L1316.28 152.313H1352.04L1363.45 93.8432ZM1493.62 322.359C1493.62 223.292 1569.03 145.985 1674.88 145.985C1698.68 145.985 1719.27 150.611 1731.14 155.764L1711.3 218.167C1701.5 214.333 1690.18 211.455 1673.73 211.455C1615.18 211.455 1579.5 260.828 1579.5 313.157C1579.5 351.104 1603.29 370.48 1633.94 370.48C1657.75 370.48 1674.86 364.852 1689.06 359.073L1689.64 421.859C1672.05 430.214 1643.57 436.045 1610.65 436.045C1541.93 436.045 1493.62 394.415 1493.62 322.359ZM1735.84 321.688C1735.84 225.071 1802.89 145.985 1901.77 145.985C1976.27 145.985 2019.38 197.112 2019.38 260.245C2019.38 361.885 1950.14 436.524 1853.45 436.524C1782.97 436.524 1735.84 390.602 1735.84 321.688ZM2312.99 198.226C2339.25 161.917 2373.82 145.985 2410.76 145.985C2456.18 145.985 2481.79 173.748 2481.79 221.615C2481.79 233.991 2479.61 255.049 2477.28 268.68L2446.61 430.006H2364.75L2393.79 276.155C2395.36 266.417 2396.57 254.988 2396.57 244.81C2396.57 225.587 2389.74 211.836 2369.25 211.836C2342.56 211.836 2311.16 245.454 2299.85 306.829L2276.46 430.006H2194.7L2229.97 242.703C2236.76 207.523 2241.25 176.935 2244.83 152.31H2317.49L2311.84 198.226H2312.99ZM1138.95 430.196L1191.77 152.215H1273.53L1220.72 430.196H1138.95ZM2043.92 430.196L2096.74 152.215H2178.6L2125.78 430.196H2043.92ZM1934.74 260.822C1934.74 235.255 1923.92 208.005 1890.94 208.005C1843.82 208.005 1819.98 276.839 1820.48 320.062C1820.48 352.352 1836.5 374.029 1864.96 374.029C1909.88 374.029 1934.74 308.501 1934.74 260.822ZM1030.54 259.763C1030.54 233.004 1019.25 212.029 994.309 212.029C964.718 212.029 935.792 242.068 926.057 290.437L920.879 313.347C920.604 315.546 920.266 317.78 919.919 320.07C918.838 327.203 917.672 334.891 918.1 343.831C918.667 363.68 930.504 374.505 949.35 374.505C996.529 374.505 1030.54 308.513 1030.54 259.763ZM1845.6 545.13V473.047H1886.91V626.606C1886.91 641.556 1887.44 657.341 1888.06 666.386H1851.25L1849.43 646.737H1848.85C1840.31 661.687 1824.24 669.359 1807.16 669.359C1775.49 669.359 1750.12 642.255 1750.12 600.919C1749.87 555.875 1777.93 530.082 1809.84 530.082C1826.17 530.082 1838.93 535.891 1845.02 545.13H1845.6ZM1975.38 666.386V473.047L2016.89 473.05V548.967H2017.37C2021.83 543.311 2027.22 538.87 2033.76 535.354C2039.85 532.023 2047.72 530.177 2055.32 530.177C2081.84 530.177 2101.91 548.474 2101.91 588.552V666.386H2060.5V593.153C2060.5 575.623 2054.55 563.725 2039.03 563.725C2028.1 563.725 2021.24 570.816 2018.23 578.104C2017.16 580.739 2016.89 584.227 2016.89 587.307V666.386H1975.38ZM1520.84 504.199L1561.48 495.092L1561.48 533.149H1591.29V563.633H1561.48V611.849C1561.48 627.928 1565.37 635.237 1577.87 635.237C1583.02 635.237 1587.09 634.685 1590.04 634.182L1590.33 665.528C1584.93 667.788 1575.08 669.172 1563.4 669.172C1549.96 669.172 1538.78 664.325 1532.25 657.669C1524.64 649.688 1520.84 636.891 1520.84 617.983V563.633H1503.2V533.149H1520.84V504.199ZM824.931 541.87C834.164 536.655 852.446 530.079 876.693 530.079C921.103 530.079 935.357 556.243 935.357 587.592V633.793C935.357 646.734 935.857 659.034 937.179 666.383H899.794L897.395 652.964H896.536C887.8 663.58 874.15 669.356 858.384 669.356C831.373 669.356 815.346 649.85 815.346 628.618C815.346 593.941 846.449 577.246 893.564 577.623V575.611C893.564 568.577 889.791 558.55 869.313 558.55C855.743 558.55 841.238 563.083 832.505 568.614L824.931 541.87ZM960.469 600.916C960.469 561.967 987.14 530.079 1036.77 530.079C1047.64 530.079 1059.63 531.861 1068.3 535.253L1061.78 565.927C1056.89 563.728 1049.52 561.998 1038.59 561.998C1016.92 561.998 1002.62 577.515 1002.93 599.19C1002.93 623.753 1019.29 636.477 1039.45 636.477C1049.25 636.477 1056.85 634.998 1063.13 632.547L1068.12 663.031C1060.76 666.298 1046.85 669.07 1031.02 669.07C987.987 669.07 960.469 642.817 960.469 600.916ZM1080.38 600.916C1080.38 561.967 1107.06 530.079 1156.68 530.079C1167.62 530.079 1179.58 531.861 1188.31 535.253L1181.7 565.927C1176.8 563.728 1169.47 561.998 1158.6 561.998C1136.86 561.998 1122.63 577.515 1122.94 599.19C1122.94 623.753 1139.36 636.477 1159.46 636.477C1169.33 636.477 1176.95 634.998 1183.23 632.547L1188.12 663.031C1180.77 666.298 1166.8 669.07 1151.03 669.07C1107.93 669.07 1080.38 642.817 1080.38 600.916ZM1200.49 601.107C1200.49 567.372 1221.42 530.079 1267.78 530.079C1310.75 530.079 1327.21 563.78 1327.22 596.503C1327.22 603.788 1326.4 609.91 1325.77 612.99H1240.08C1241.4 630.139 1258.3 638.2 1277.65 638.2C1291.79 638.2 1303.28 636.381 1314.46 632.737L1319.83 660.727C1306.2 666.255 1289.65 669.067 1271.61 669.067C1226.45 669.067 1200.49 642.755 1200.49 601.107ZM1389.32 551.645C1399.12 537.385 1414.52 530.079 1433.8 530.079C1462.95 530.079 1489.11 555.415 1489.11 597.947C1489.11 646.504 1458.34 669.359 1428.63 669.359C1412.54 669.359 1400.12 662.847 1394.02 654.117H1393.55V720.256H1352.14V577.813C1352.14 560.838 1351.52 546.112 1351.03 534.168L1351.03 534.157L1350.99 533.146H1387.03L1388.85 551.645H1389.32ZM1606.24 601.107C1606.24 567.372 1627.3 530.079 1673.54 530.079C1716.57 530.079 1732.87 563.78 1732.88 596.503C1732.88 603.788 1732.03 609.91 1731.53 612.99H1645.84C1647.22 630.139 1664 638.2 1683.41 638.2C1697.55 638.2 1708.94 636.381 1720.13 632.737L1725.59 660.727C1711.95 666.255 1695.4 669.067 1677.37 669.067C1632.2 669.067 1606.24 642.755 1606.24 601.107ZM2127.7 601.107C2127.7 567.372 2148.63 530.079 2194.99 530.079C2237.96 530.079 2254.32 563.78 2254.33 596.503C2254.33 603.788 2253.49 609.91 2252.98 612.99H2167.19C2168.58 630.139 2185.45 638.2 2204.86 638.2C2219 638.2 2230.46 636.381 2241.58 632.737L2247.13 660.727C2233.44 666.255 2216.86 669.067 2198.82 669.067C2153.59 669.067 2127.7 642.755 2127.7 601.107ZM2373.09 601.107C2373.09 567.372 2394.15 530.079 2440.38 530.079C2483.41 530.079 2499.81 563.78 2499.81 596.503C2499.81 603.788 2499 609.91 2498.37 612.99H2412.68C2414.06 630.139 2430.91 638.2 2450.25 638.2C2464.45 638.2 2475.88 636.381 2487.06 632.737L2492.52 660.727C2478.89 666.255 2462.25 669.067 2444.21 669.067C2399.05 669.067 2373.09 642.755 2373.09 601.107ZM2316.43 557.777C2323.22 538.431 2339.54 530.266 2352.29 530.266C2352.79 530.266 2353.26 530.265 2353.7 530.264C2356.71 530.257 2358.53 530.252 2361.1 530.744V569.758L2360.69 569.689C2357.76 569.198 2354.23 568.608 2349.79 568.608C2334.59 568.608 2324.21 576.727 2321.51 589.601C2320.95 592.303 2320.65 595.539 2320.65 598.803V666.38H2279.24V577.043C2279.24 557.507 2278.79 544.581 2278.28 533.143H2313.85L2315.19 557.777H2316.43ZM1288.77 584.613C1288.77 574.503 1284.26 557.584 1265.29 557.584C1247.82 557.584 1240.76 573.31 1239.7 584.613H1288.77ZM1694.63 584.613C1694.63 574.503 1690.21 557.584 1671.04 557.584C1653.65 557.584 1646.65 573.31 1645.45 584.613H1694.63ZM2215.98 584.613C2215.98 574.503 2211.6 557.584 2192.5 557.584C2175.1 557.584 2167.97 573.31 2166.9 584.613H2215.98ZM2461.37 584.613C2461.37 574.503 2456.92 557.584 2437.89 557.584C2420.36 557.584 2413.42 573.31 2412.29 584.613H2461.37ZM1845.02 582.028C1842.57 570.85 1833.52 561.611 1820.77 561.611C1801.86 561.611 1792.11 578.589 1792.11 599.57C1792.11 622.06 1803.4 636.283 1820.48 636.283C1832.54 636.283 1842.09 628.188 1844.54 616.44C1845.36 613.49 1845.6 610.533 1845.6 606.95V589.313C1845.6 587.113 1845.27 584.101 1845.02 582.028ZM1447.13 599.855C1447.13 578.623 1437.73 562.568 1419.14 562.568C1407.39 562.568 1397.01 571.28 1394.31 583.463C1393.81 585.727 1393.55 588.46 1393.55 590.843V609.152C1393.55 612.545 1393.81 615.398 1394.31 617.971C1397.01 629.09 1406.57 637.621 1418.56 637.621C1436.47 637.621 1447.13 622.413 1447.13 599.855ZM894.996 617.879L894.904 603.404C873.166 603.03 856.274 608.189 856.274 624.397C856.274 635.013 863.332 640.117 872.568 640.117C882.932 640.117 891.432 633.516 894.134 624.971C894.699 622.839 894.996 620.33 894.996 617.879Z" fill="#4D4D4D"/>
<path d="M332.907 383.421L319.965 453.109C318.392 462.845 317.573 468.918 317.76 470.556C318.134 472.881 319.159 474.663 320.732 475.734C322.428 476.863 327.063 478.347 334.919 479.663L358.403 484.169C372.157 486.62 383.711 487.543 393.199 486.66C402.683 485.78 411.321 481.909 419.176 475.062C426.903 468.148 431.835 459.241 434.035 447.934C435.667 438.447 435.032 430.009 431.829 422.534C428.498 415.12 422.866 408.773 414.575 403.746C406.281 398.718 393.039 394.642 374.7 391.188L332.907 383.421Z" fill="#FF7E00"/>
</g>
<defs>
<clipPath id="clip0_129_400">
<rect width="2500" height="747" fill="white"/>
</clipPath>
</defs>
</svg>
