<svg width="36" height="36" viewBox="0 0 36 36" fill="none" xmlns="http://www.w3.org/2000/svg">
<path d="M4.74121 11.2052L6.50894 9.43735L6.50893 9.43733L4.74121 11.2052ZM3.69919 5.96714L1.38948 5.01046L1.38947 5.01048L3.69919 5.96714ZM12.5803 5.96714L14.8901 5.01048L14.8901 5.01046L12.5803 5.96714ZM11.5383 11.2052L13.3061 12.973L13.3061 12.973L11.5383 11.2052ZM25.1282 31.5923L23.3604 33.3601L23.3605 33.3602L25.1282 31.5923ZM24.0863 26.3543L26.396 27.311L26.3961 27.3108L24.0863 26.3543ZM31.9253 31.5923L30.1577 29.8244L30.1575 29.8245L31.9253 31.5923ZM33.6933 6.17584C34.6696 5.19953 34.6696 3.61662 33.6933 2.6403C32.717 1.66399 31.1341 1.66399 30.1577 2.6403L33.6933 6.17584ZM2.97131 29.8267C1.995 30.803 1.99499 32.3859 2.9713 33.3622C3.94761 34.3385 5.53053 34.3385 6.50684 33.3622L2.97131 29.8267ZM6.50893 9.43733C5.84928 8.77773 5.65193 7.78568 6.0089 6.92381L1.38947 5.01048C0.258625 7.74072 0.883782 10.8834 2.9735 12.973L6.50893 9.43733ZM6.0089 6.92383C6.36589 6.06195 7.2069 5.5 8.13978 5.5V0.5C5.18458 0.5 2.52036 2.28018 1.38948 5.01046L6.0089 6.92383ZM8.13978 5.5C9.07263 5.5 9.91365 6.06195 10.2706 6.92383L14.8901 5.01046C13.7592 2.28019 11.095 0.5 8.13978 0.5V5.5ZM10.2706 6.92381C10.6276 7.78568 10.4303 8.77774 9.77062 9.43735L13.3061 12.973C15.3958 10.8834 16.0209 7.74072 14.8901 5.01048L10.2706 6.92381ZM9.77063 9.43734C8.86991 10.338 7.40962 10.338 6.50894 9.43735L2.97349 12.973C5.82679 15.8261 10.4528 15.8261 13.3061 12.973L9.77063 9.43734ZM26.8959 29.8245C26.2363 29.1649 26.039 28.173 26.396 27.311L21.7766 25.3976C20.6457 28.1279 21.2708 31.2704 23.3604 33.3601L26.8959 29.8245ZM26.3961 27.3108C26.753 26.4491 27.5939 25.8871 28.5267 25.8871V20.8871C25.5716 20.8871 22.9072 22.6673 21.7765 25.3978L26.3961 27.3108ZM28.5267 25.8871C29.4597 25.8871 30.3006 26.449 30.6577 27.311L35.2771 25.3976C34.1461 22.6674 31.4822 20.8871 28.5267 20.8871V25.8871ZM30.6577 27.311C31.0147 28.173 30.8174 29.1648 30.1577 29.8244L33.6929 33.3602C35.7829 31.2705 36.408 28.1279 35.2771 25.3976L30.6577 27.311ZM30.1575 29.8245C29.257 30.7251 27.7967 30.7252 26.8958 29.8244L23.3605 33.3602C26.2139 36.2132 30.8398 36.2134 33.6931 33.3601L30.1575 29.8245ZM30.1577 2.6403L2.97131 29.8267L6.50684 33.3622L33.6933 6.17584L30.1577 2.6403Z" fill="#FAFAFA"/>
</svg>
