<svg width="500" height="500" viewBox="0 0 500 500" fill="none" xmlns="http://www.w3.org/2000/svg">
<rect width="500" height="500" rx="20" fill="white"/>
<path d="M252.783 356.054C369.119 356.054 463.428 309.49 463.428 252.05C463.428 194.61 369.119 148.046 252.783 148.046C136.447 148.046 42.1387 194.61 42.1387 252.05C42.1387 309.49 136.447 356.054 252.783 356.054Z" stroke="#3A3A3A" stroke-width="10" stroke-miterlimit="10"/>
<path d="M163.298 305.042C222.583 405.137 310.706 462.552 360.128 433.28C409.549 404.009 401.553 299.137 342.268 199.041C282.983 98.946 194.86 41.5318 145.439 70.8032C96.0175 100.074 104.013 204.947 163.298 305.042Z" stroke="#3A3A3A" stroke-width="10" stroke-miterlimit="10"/>
<path d="M163.281 199.006C103.996 299.101 96.0005 403.973 145.422 433.244C194.843 462.516 282.966 405.102 342.251 305.006C401.536 204.911 409.532 100.039 360.111 70.7674C310.689 41.4961 222.566 98.9103 163.281 199.006Z" stroke="#3A3A3A" stroke-width="10" stroke-miterlimit="10"/>
<path d="M225.049 275.781C224.854 277.148 224.072 279.296 221.045 279.296C221.143 279.394 213.33 279.296 213.33 279.296L211.182 291.992H224.951C227.49 291.992 230.029 291.992 232.568 292.089V309.765H243.213V292.285C246.143 292.382 248.975 292.382 251.709 292.382V309.765H262.354V292.187C280.225 291.21 292.725 286.62 294.189 269.921C295.459 256.445 289.111 250.39 278.955 247.949C285.107 244.824 288.916 239.257 288.037 230.078C286.865 217.48 276.025 213.281 262.256 212.109V194.628H251.611V211.62C248.779 211.62 245.947 211.718 243.115 211.718V194.628H232.471V212.109C230.127 212.109 227.881 212.206 225.732 212.206V212.109H211.084V223.437C211.084 223.437 218.896 223.242 218.799 223.437C223.096 223.437 224.463 225.976 224.951 228.124L225.049 275.781ZM273.193 267.675C273.193 280.859 250.635 279.394 243.408 279.394V256.054C250.635 256.054 273.193 254.003 273.193 267.675ZM268.311 234.765C268.311 246.777 249.463 245.312 243.506 245.312V224.12C249.463 224.12 268.311 222.265 268.311 234.765Z" fill="#3A3A3A"/>
<path d="M219.482 271.777C219.287 273.144 218.506 275.292 215.479 275.292C215.576 275.39 207.764 275.292 207.764 275.292L205.615 287.988H219.385C221.924 287.988 224.463 287.988 227.002 288.085V305.761H237.646V288.281C240.576 288.378 243.408 288.378 246.143 288.378V305.761H256.787V288.183C274.658 287.206 287.158 282.617 288.623 265.917C289.893 252.441 283.545 246.386 273.389 243.945C279.541 240.82 283.35 235.253 282.471 226.074C281.299 213.476 270.459 209.277 256.689 208.105V190.624H246.045V207.617C243.213 207.617 240.381 207.714 237.549 207.714V190.624H226.904V208.105C224.561 208.105 222.314 208.203 220.166 208.203V208.105H205.518V219.433C205.518 219.433 213.33 219.238 213.232 219.433C217.529 219.433 218.896 221.972 219.385 224.12L219.482 271.777ZM267.627 263.671C267.627 276.855 245.068 275.39 237.842 275.39V252.05C245.068 251.953 267.627 249.902 267.627 263.671ZM262.744 230.663C262.744 242.675 243.896 241.21 237.939 241.21V220.019C243.896 220.117 262.744 218.163 262.744 230.663Z" fill="#0A6ED9"/>
<path d="M247.217 351.953C363.553 351.953 457.861 305.388 457.861 247.949C457.861 190.509 363.553 143.945 247.217 143.945C130.881 143.945 36.5723 190.509 36.5723 247.949C36.5723 305.388 130.881 351.953 247.217 351.953Z" stroke="#0A6ED9" stroke-width="10" stroke-miterlimit="10"/>
<path d="M157.764 300.959C217.049 401.054 305.172 458.468 354.593 429.197C404.014 399.926 396.018 295.053 336.734 194.958C277.449 94.8626 189.325 37.4484 139.904 66.7197C90.4831 95.9911 98.4791 200.863 157.764 300.959Z" stroke="#0A6ED9" stroke-width="10" stroke-miterlimit="10"/>
<path d="M157.748 194.961C98.4628 295.056 90.4668 399.928 139.888 429.2C189.309 458.471 277.433 401.057 336.717 300.961C396.002 200.866 403.998 95.9938 354.577 66.7225C305.156 37.4512 217.032 94.8654 157.748 194.961Z" stroke="#0A6ED9" stroke-width="10" stroke-miterlimit="10"/>
</svg>
