<?xml version="1.0" encoding="UTF-8" standalone="no"?>
<svg
   version="1.0"
   width="474pt"
   height="474pt"
   viewBox="0 0 474 474"
   preserveAspectRatio="xMidYMid"
   id="svg2"
   sodipodi:docname="th-3140295090.svg"
   xmlns:inkscape="http://www.inkscape.org/namespaces/inkscape"
   xmlns:sodipodi="http://sodipodi.sourceforge.net/DTD/sodipodi-0.dtd"
   xmlns="http://www.w3.org/2000/svg"
   xmlns:svg="http://www.w3.org/2000/svg">
  <defs
     id="defs2" />
  <sodipodi:namedview
     id="namedview2"
     pagecolor="#ffffff"
     bordercolor="#000000"
     borderopacity="0.25"
     inkscape:showpageshadow="2"
     inkscape:pageopacity="0.0"
     inkscape:pagecheckerboard="0"
     inkscape:deskcolor="#d1d1d1"
     inkscape:document-units="pt" />
  <path
     style="fill:#002aff;fill-opacity:1;stroke-width:0.200677"
     d="m 100.61553,339.39564 c 0.16051,-9.43325 0.38719,-13.96676 0.94072,-18.8135 0.22059,-1.93152 0.45117,-4.00854 0.51238,-4.61559 l 0.11132,-1.10373 -1.67317,-0.68894 C 90.752257,310.1573 80.010075,304.87498 72.678781,300.48981 47.789067,285.60222 32.570772,268.16965 27.67702,248.94031 c -1.102142,-4.33073 -1.460872,-7.41061 -1.460872,-12.54234 0,-7.05317 0.659425,-10.65265 3.194647,-17.43803 1.285412,-3.44033 3.695627,-8.55614 5.411396,-11.48597 7.447399,-12.71712 19.091751,-23.53332 36.317944,-33.735 5.249952,-3.10913 8.314107,-4.73798 17.65961,-9.38755 9.02133,-4.48828 11.555015,-5.90248 12.422995,-6.93401 0.60907,-0.72385 0.63381,-1.13999 0.23262,-3.91403 -0.73282,-5.06709 -1.22388,-19.67604 -1.04505,-31.09017 0.13965,-8.91264 0.32756,-11.87468 1.05033,-16.55589 2.5141,-16.28332 7.79211,-29.802385 15.51269,-39.734119 1.86003,-2.392741 5.77387,-6.374241 8.14903,-8.289911 7.66434,-6.181636 16.31985,-9.809669 26.9911,-11.313575 3.88496,-0.547508 12.42932,-0.489585 16.94936,0.114903 15.36165,2.054396 30.07719,7.680591 46.60429,17.818234 8.51128,5.220775 17.56728,11.487205 19.57078,13.542288 0.87764,0.900232 1.01904,0.971415 1.92964,0.971415 1.23438,0 3.1248,-0.918248 5.25694,-2.55348 8.52102,-6.535148 13.39212,-9.782456 21.36596,-14.243567 10.79558,-6.039788 23.70329,-11.518243 31.79119,-13.493237 8.6799,-2.119551 22.80635,-3.005756 30.31847,-1.90199 11.72079,1.722155 23.74948,8.788546 32.25329,18.947565 9.60508,11.474686 15.05335,26.338224 17.02885,46.456814 0.49739,5.06525 0.60274,18.50552 0.20295,25.88738 -0.40384,7.45664 -0.86697,14.13992 -1.12604,16.24961 -0.24428,1.98949 -0.24826,3.92728 -0.009,4.30566 0.0998,0.15777 0.64737,0.40607 1.21671,0.55177 5.15205,1.3185 25.84152,12.12262 35.3775,18.47424 17.16555,11.43346 29.34013,25.17122 35.15967,39.67411 1.76115,4.38895 2.87406,8.60393 3.55332,13.45757 0.37725,2.69568 0.31797,9.53545 -0.10696,12.34166 -3.77749,24.94611 -24.15107,46.98373 -59.7248,64.60299 -6.49517,3.21698 -10.39182,4.90024 -13.36018,5.77126 l -2.51724,0.73866 0.10714,0.81631 c 0.0589,0.449 0.33287,3.57063 0.60874,6.93699 0.56818,6.93349 0.90008,14.70608 0.90192,21.1213 l 0.002,4.36474 h -8.12743 -8.12744 l -2.2e-4,-2.65898 c -1.2e-4,-1.46244 -0.0912,-5.23267 -0.20248,-8.37829 -0.44406,-12.55628 -1.13146,-15.65283 -3.47477,-15.65283 -0.24625,0 -1.09351,0.30948 -1.8828,0.68772 -1.95319,0.93606 -4.94587,1.87455 -10.1929,3.19647 -12.5556,3.1632 -25.22194,5.73681 -43.1867,8.77486 l -6.26206,1.05898 -4.61186,5.83383 c -2.53655,3.20861 -4.86599,6.13003 -5.17656,6.49207 l -0.56469,0.65823 -10.80312,-0.0562 -10.80312,-0.0562 1.93821,-2.10711 c 4.24114,-4.61072 6.29078,-7.12244 6.02755,-7.38646 -0.25484,-0.25556 -10.07876,-0.39571 -29.00346,-0.41375 -19.62864,-0.0188 -34.64933,0.227 -34.99484,0.57253 -0.2861,0.28609 0.75396,1.70133 3.69629,5.02962 1.37574,1.5562 2.80653,3.18407 3.17953,3.61749 l 0.67819,0.78802 h -10.65327 -10.65327 l -5.19865,-6.48072 -5.19866,-6.48071 -7.50281,-1.25584 c -19.10329,-3.19759 -31.04229,-5.73209 -46.03921,-9.77357 -4.68982,-1.26385 -8.74938,-2.2979 -9.02124,-2.2979 -1.16338,0 -1.54667,2.07119 -2.60595,14.08186 -0.2832,3.21114 -0.50745,7.17959 -0.50745,8.98031 v 3.22657 h -7.85735 -7.85705 z m 162.47253,-18.99927 c 14.19163,-0.55897 19.15853,-1.05581 21.41461,-2.14211 0.64319,-0.30971 1.49331,-0.99193 2.20811,-1.77201 1.28847,-1.40614 8.78367,-11.62998 10.60279,-14.46278 0.63791,-0.99335 2.12467,-3.29612 3.30391,-5.11727 5.30479,-8.19231 11.7433,-19.41835 18.29492,-31.89857 2.98239,-5.68114 14.01139,-27.83409 14.01139,-28.14336 0,-0.42169 -5.20075,-11.50764 -8.45446,-18.02157 -6.88036,-13.7745 -15.06141,-28.20896 -23.71449,-41.84124 -5.8196,-9.16835 -12.33419,-18.46637 -14.64162,-20.89739 -1.5585,-1.64198 -2.51379,-2.13545 -4.76352,-2.46072 -4.79061,-0.69263 -21.05565,-1.06186 -47.05884,-1.06827 -23.02913,-0.006 -29.01152,0.15254 -38.29762,1.01291 l -5.78789,0.53625 -6.31534,9.53218 c -11.96964,18.0666 -17.43649,26.80602 -22.30715,35.66069 -7.15259,13.00317 -16.7519,32.72252 -17.72307,36.40759 -0.22415,0.85049 -0.19781,1.0604 0.31475,2.50847 2.56949,7.25929 14.78407,31.25079 23.43502,46.03035 11.05479,18.88635 19.98069,32.2135 22.70121,33.89488 0.76558,0.47313 2.83439,0.7538 11.17879,1.51658 5.14732,0.47051 10.77082,0.82771 15.54304,0.98729 4.32169,0.14451 41.03815,-0.0643 46.05546,-0.2619 z m -96.52583,-5.93309 c 0,-0.67101 -1.5703,-3.65082 -3.71519,-7.04998 -11.47138,-18.17951 -15.44479,-25.03388 -22.26314,-38.40526 -4.28617,-8.40553 -5.21799,-10.02448 -5.77316,-10.03025 -0.9718,-0.0101 -4.57268,10.07524 -8.48918,23.77666 -2.98845,10.4547 -4.7907,18.3237 -4.67205,20.39919 l 0.0613,1.07302 1.10373,0.43636 c 5.87313,2.32189 38.72998,10.19844 42.89479,10.28287 0.77976,0.0158 0.85288,-0.0256 0.85288,-0.48261 z m 145.98951,0.0907 c 11.93043,-2.07168 39.7887,-9.61984 41.03163,-11.11746 0.34637,-0.41736 -0.53751,-4.83858 -2.6226,-13.11829 -4.52236,-17.95802 -8.09223,-30.09615 -9.3102,-31.65628 -0.30123,-0.38587 -0.30796,-0.38575 -0.6141,0.0112 -0.58565,0.75939 -2.54203,4.22197 -4.64874,8.22777 -1.16094,2.20746 -3.06013,5.81964 -4.22043,8.0271 -5.1296,9.75894 -10.60195,19.10527 -18.86795,32.22486 -2.36676,3.75645 -4.05549,6.85866 -4.05549,7.44994 0,0.46712 0.3677,0.4617 3.30788,-0.0489 z m 62.3715,-18.17305 c 3.05782,-1.21063 13.62888,-6.48014 17.8796,-8.9127 10.45296,-5.98198 18.15761,-11.77712 25.11557,-18.89101 5.01086,-5.12314 8.65223,-10.07242 11.12558,-15.12166 2.83007,-5.77751 4.01919,-10.94463 4.01664,-17.45367 -0.002,-4.78359 -0.71636,-8.49274 -2.48238,-12.88701 -6.64667,-16.53839 -24.59739,-32.03448 -51.79967,-44.71641 -4.83438,-2.25384 -7.66156,-3.50811 -7.90737,-3.50811 -0.43198,0 -0.97283,1.85836 -2.54056,8.72946 -2.52049,11.04678 -8.84917,30.55278 -15.41852,47.52224 -1.06006,2.73824 -1.92737,5.10217 -1.92737,5.25316 0,0.15099 1.70357,4.81893 3.7857,10.37318 6.40867,17.09569 10.07467,28.41068 12.86206,39.69859 1.86768,7.56339 2.17441,8.72274 2.62098,9.90684 l 0.44406,1.17737 0.88753,-0.10004 c 0.48817,-0.055 1.99032,-0.53663 3.33815,-1.07023 z m -270.21814,0.47111 c 0.81077,-0.8658 1.49683,-2.88062 3.26288,-9.58234 3.79897,-14.41608 9.42579,-31.50607 14.93173,-45.35113 l 2.11407,-5.31599 -3.19154,-8.53075 c -7.03765,-18.81113 -12.34902,-35.62814 -14.86337,-47.06081 -0.7383,-3.35706 -1.29437,-5.29396 -1.6656,-5.80164 -0.2598,-0.35531 -0.32025,-0.35748 -1.25916,-0.0452 -3.50655,1.16622 -22.934,11.41715 -29.072495,15.34015 -9.81371,6.27177 -21.5956,17.9679 -26.866278,26.67071 -1.301336,2.14874 -3.296363,6.5046 -3.840924,8.38612 -1.224842,4.23196 -1.229393,17.62972 -0.0074,21.84649 0.655501,2.26199 2.514511,6.31443 3.991478,8.70094 4.924227,7.95674 14.937541,18.1876 24.507085,25.03949 3.918714,2.80583 11.292069,6.96717 20.584749,11.61751 6.407505,3.20651 9.403105,4.50617 10.435105,4.52738 0.28783,0.006 0.70425,-0.18948 0.9397,-0.4409 z M 342.16306,212.4672 c 2.63244,-6.32203 7.79796,-22.78316 10.15437,-32.35923 0.61109,-2.48338 1.42622,-5.68288 1.8114,-7.10998 0.54817,-2.03102 0.65505,-2.69412 0.4919,-3.05218 -0.66524,-1.46004 -4.91571,-2.90066 -18.78712,-6.36749 -15.67535,-3.9177 -25.89039,-5.96811 -26.76974,-5.37333 -0.3755,0.25398 0.38484,1.62456 3.63772,6.55722 6.06365,9.19487 16.28708,26.93954 22.83117,39.62772 3.94893,7.6565 5.1247,9.63252 5.73153,9.63252 0.13814,0 0.54258,-0.69987 0.89877,-1.55525 z m -204.23873,-3.86304 c 8.58611,-16.42884 18.85749,-34.10971 26.23049,-45.15241 2.8434,-4.25863 3.11082,-4.75333 2.78299,-5.14834 -0.70824,-0.85338 -7.77907,0.41689 -22.55043,4.05115 -14.43872,3.55242 -21.64521,5.9277 -22.81387,7.51953 -0.36558,0.49795 -0.34955,0.57831 1.82142,9.13083 4.17579,16.45047 8.83844,31.51185 10.58032,34.17677 0.21638,0.33103 0.457,0.44582 0.84131,0.40135 0.48345,-0.0559 0.79982,-0.5628 3.10777,-4.97888 z m -16.20846,-57.17878 c 1.3217,-0.32327 4.02858,-1.05166 6.01529,-1.61866 13.95422,-3.98246 28.93776,-7.14258 47.03436,-9.91984 3.90477,-0.59926 7.16408,-1.16379 7.24292,-1.25452 0.0788,-0.0907 0.94089,-1.28556 1.91567,-2.65518 5.56634,-7.82103 14.11563,-17.60957 27.27074,-31.22369 7.4226,-7.681618 11.32711,-12.089367 12.28545,-13.868892 l 0.36178,-0.671783 -0.68223,-0.703882 c -2.03976,-2.1045 -16.37492,-11.32734 -24.59551,-15.824058 -6.9999,-3.828994 -15.99368,-7.41513 -22.97163,-9.159591 -4.9176,-1.229384 -10.83627,-2.173949 -14.77621,-2.358144 -2.71019,-0.126705 -5.73618,0.209829 -9.70643,1.079497 -12.44646,2.726355 -23.75538,13.270173 -28.79473,26.846666 -3.67701,9.906202 -6.35016,26.531487 -6.01946,37.437187 0.33135,10.92703 1.35869,23.23873 2.02972,24.32449 0.16778,0.27146 0.9068,0.17781 3.39027,-0.4296 z m 236.28553,-7.5e-4 c 0.11427,-0.21349 0.20841,-0.91335 0.20921,-1.55526 7.5e-4,-0.64189 0.23274,-4.23745 0.51538,-7.99011 1.11603,-14.8173 0.3783,-29.83305 -2.02612,-41.23921 -1.30286,-6.180525 -5.46736,-16.06257 -9.55951,-22.683953 -2.65303,-4.29283 -7.8279,-8.568132 -14.21657,-11.745264 -2.58586,-1.28597 -4.61132,-1.93439 -8.41243,-2.693106 -3.88247,-0.774959 -6.18041,-1.00638 -9.99303,-1.00638 -6.66183,0 -13.92732,1.39913 -21.48282,4.136995 -12.50122,4.530027 -29.71613,14.319823 -39.78064,22.622495 -0.93817,0.77394 -1.74144,1.434218 -1.78507,1.467285 -0.0436,0.03307 2.13122,2.342258 4.83296,5.13153 17.25113,17.810048 23.61132,24.876408 32.56121,36.176418 2.62253,3.31117 4.92227,6.18109 5.11051,6.3776 0.2682,0.27997 1.88354,0.59419 7.46484,1.45209 7.82754,1.20316 13.61208,2.23492 20.34687,3.62917 8.48037,1.7556 11.58668,2.50771 28.89755,6.99676 5.41713,1.40477 6.95592,1.59884 7.31766,0.92294 z M 223.2536,135.25148 c 21.40664,-0.50156 26.80631,-0.55241 33.51312,-0.31561 13.71626,0.48431 14.14776,0.49242 14.14776,0.26592 0,-0.24993 -2.20774,-2.55842 -16.04849,-16.78097 -9.21184,-9.46592 -16.4471,-16.57705 -16.86644,-16.57705 -0.90923,0 -15.38265,14.24696 -24.12275,23.74529 -2.6129,2.83958 -8.78451,9.89542 -8.78451,10.04311 0,0.0549 1.28684,0.0573 2.85965,0.005 1.57281,-0.052 8.45856,-0.2257 15.30166,-0.38604 z"
     id="path3" />
  <path
     style="fill:#002aff;fill-opacity:1;stroke-width:0.200677"
     d="m 220.1431,289.87849 v -9.03048 h -11.11233 -11.11232 l 0.98491,-4.85328 c 0.54169,-2.6693 1.09473,-5.07683 1.22896,-5.35007 0.41239,-0.83946 1.18822,-1.25004 2.7684,-1.46506 6.39337,-0.86998 8.09674,-1.26972 8.29338,-1.94625 1.03974,-3.577 2.28665,-43.95932 1.53855,-49.82718 -0.52575,-4.12372 -1.6845,-5.8822 -4.32917,-6.56979 -0.4415,-0.11478 -2.51851,-0.39405 -4.61559,-0.62059 -2.09708,-0.22654 -4.24182,-0.46455 -4.76609,-0.52891 l -0.95321,-0.11701 v -4.69709 -4.69708 l 0.85288,-0.004 c 2.88588,-0.0117 21.49188,-0.60126 21.57423,-0.68361 0.0972,-0.0972 0.62666,-13.2917 0.64278,-16.01933 l 0.008,-1.35457 h 5.01192 5.01192 l -0.0876,0.55186 c -0.14189,0.89369 -0.5706,16.70706 -0.45604,16.82162 0.16274,0.16273 6.93397,-0.49569 8.25131,-0.80235 0.64658,-0.15051 1.30399,-0.40206 1.46092,-0.55899 0.67925,-0.67924 0.79296,-5.21463 0.34235,-13.65418 l -0.1259,-2.35796 h 5.25983 5.25983 l -0.11303,1.55525 c -0.19719,2.71317 -0.57125,15.71523 -0.45546,15.83103 0.061,0.061 1.35917,0.28534 2.88463,0.49834 7.38849,1.03168 11.62663,2.32312 15.45562,4.70962 3.3162,2.0669 6.597,5.97643 7.5279,8.97055 0.39741,1.27823 0.44987,1.87884 0.45054,5.15917 0.002,7.5666 -1.34123,10.57218 -6.62769,14.8348 -1.42681,1.15048 -2.61699,2.14447 -2.64485,2.20887 -0.0278,0.0644 0.83856,0.4181 1.92536,0.78599 7.72228,2.61405 11.93398,6.5389 13.47251,12.5549 0.95687,3.74159 0.16495,11.84976 -1.63469,16.73671 -2.13786,5.80548 -10.43182,11.15874 -20.29876,13.10168 -0.57173,0.11258 -3.14303,0.45914 -5.71399,0.77014 -2.57096,0.31098 -4.72509,0.61604 -4.78694,0.6779 -0.10397,0.10396 -0.64755,13.2973 -0.66507,16.14167 l -0.008,1.25423 h -4.91659 -4.9166 v -8.52879 -8.52879 h -5.01693 -5.01693 v 9.03049 9.03048 h -4.91661 -4.91659 z m 21.87384,-22.08614 c 11.43522,-0.67402 17.07049,-2.9031 19.33394,-7.64769 1.18533,-2.48464 1.59834,-4.16205 1.49757,-6.08212 -0.0766,-1.46004 -0.17401,-1.81367 -0.77688,-2.82154 -1.93462,-3.23426 -5.58203,-5.83402 -9.82009,-6.99946 -2.96253,-0.81468 -9.3882,-1.31964 -16.80673,-1.32074 l -5.46846,-7.5e-4 v 12.67225 12.67224 l 4.36473,-0.13848 c 2.4006,-0.0762 5.85477,-0.22629 7.67592,-0.33364 z m 0.30101,-33.59322 c 7.84885,-0.65386 11.52068,-3.2284 13.15552,-9.22407 0.7932,-2.90903 0.23409,-4.94995 -2.18988,-7.99378 -1.40176,-1.76022 -2.41519,-2.57106 -3.91464,-3.13208 -1.4765,-0.55243 -5.23062,-1.36177 -8.15472,-1.75806 -3.18501,-0.43165 -9.44652,-0.49738 -10.36689,-0.10882 l -0.63405,0.26766 -0.14565,2.13693 c -0.13581,1.99262 -0.059,7.28356 0.23826,16.39209 l 0.12439,3.81287 5.14112,-0.1295 c 2.82762,-0.0712 5.86356,-0.18968 6.74654,-0.26324 z"
     id="path4" />
  <path
     style="fill:#002aff;fill-opacity:1;stroke:none;stroke-width:0;stroke-dasharray:none"
     d="m 153.39252,426.54226 c -10.42324,-0.88205 -18.55206,-3.97283 -25.95581,-9.86904 -8.9637,-7.13853 -15.28004,-15.31322 -19.54206,-25.2916 -2.89061,-6.76757 -5.89901,-17.7708 -6.45195,-23.59798 -0.29631,-3.12262 -0.78295,-11.62974 -0.88611,-17.0829 l -0.0661,-3.49305 c 4.44788,1.03379 15.70646,-2.93429 15.68508,0.37123 -0.0153,2.37066 0.86263,12.31619 1.43889,16.5502 1.3758,10.10855 3.0474,15.76492 7.00039,23.68794 3.15704,6.32766 6.34588,10.64973 10.31415,13.97949 11.79737,9.89913 27.37687,11.45116 47.10719,4.69282 10.13699,-3.47228 20.54065,-8.85961 32.78889,-16.9791 6.38848,-4.23498 8.72947,-6.0078 8.72947,-6.61079 0,-1.02223 -3.75089,-5.45811 -11.54472,-13.65307 -7.13825,-7.50564 -19.13266,-20.71338 -19.74201,-21.78208 6.96996,-0.1114 14.23158,-1e-4 21.28152,-0.0178 l 1.39265,1.38094 c 10.50664,10.41824 20.57791,20.82464 22.5244,21.85145 0.54846,0.28932 0.60276,0.27126 1.6776,-0.55798 2.07456,-1.60052 11.12775,-10.55601 21.02685,-20.79995 l 1.89253,-1.96398 c 7.33441,0.0451 14.43172,-0.14802 21.63448,0.0534 -0.0691,0.3434 -9.73304,11.30013 -17.05699,18.99387 -4.91281,5.16087 -11.98953,12.86951 -13.32057,14.53668 -1.21095,1.51675 -1.43376,2.13984 -0.95454,2.66937 0.93686,1.03521 10.75157,7.55852 17.00843,11.30457 7.42434,4.44504 12.0136,6.76462 18.69815,9.45073 26.58734,10.6838 46.2875,7.68382 58.73077,-8.94368 3.97818,-5.31591 6.66411,-10.85441 8.6944,-17.92835 2.05988,-7.17691 3.08267,-14.28265 3.54846,-24.65255 l 0.15825,-5.61671 8.16314,-0.0663 8.09683,0.0332 -0.0987,3.24172 c -0.45908,15.06973 -1.06139,19.51539 -2.83607,26.60194 -6.26768,25.02754 -19.46455,41.01367 -39.10394,47.3689 -5.83681,1.88876 -8.35025,2.22074 -16.8569,2.22644 -13.16288,0.009 -20.47877,-1.29312 -31.50635,-5.60689 -15.36738,-6.0114 -33.68213,-16.76128 -42.53031,-24.96324 -2.75397,-2.55285 -3.43079,-2.96119 -4.38569,-2.64605 -0.35451,0.11701 -2.27005,1.44207 -4.25675,2.9446 -8.60342,6.5067 -24.01335,16.02792 -32.20871,19.90055 -13.54574,6.40089 -22.31536,9.03702 -33.51312,10.07397 -3.1415,0.29091 -12.28029,0.42028 -14.77514,0.20915 z"
     id="path5"
     sodipodi:nodetypes="ssssscssssssssscsssscssssssssscccssssssssssss" />
  <path
     style="fill:#002aff;fill-opacity:1;stroke:none;stroke-width:0;stroke-dasharray:none"
     d="m 265.64566,345.92437 c -0.4218,0.31617 -0.88324,0.57222 -1.34241,0.82864 -0.48666,0.27177 -0.88822,0.47432 -1.35897,0.77892 -0.24317,0.15735 -0.4842,0.3191 -0.71262,0.49718 -0.0986,0.0769 -0.18315,0.17085 -0.26517,0.26517 -0.026,0.0299 -0.081,0.12891 -0.0663,0.13258 0.19486,0.0488 0.34887,-0.20017 0.51375,-0.31488 0.48105,-0.33463 0.77234,-0.44284 1.1601,-0.94465 0.0701,-0.0907 0.0934,-0.30123 0.11601,-0.41432 7.5e-4,-0.005 0.003,0.0121 0,0.0166 -0.0361,0.0516 -0.0747,0.10162 -0.11601,0.14915 -0.22215,0.25548 -0.44913,0.44919 -0.77892,0.5469 -0.0593,0.0175 -0.12126,0.0238 -0.1823,0.0331 -0.0109,0.002 -0.0349,0.0109 -0.0331,0 0.0341,-0.20481 0.51533,-0.52611 0.67949,-0.66292 0.0392,-0.0326 0.0777,-0.0659 0.11601,-0.0994 0.006,-0.005 0.0166,-0.009 0.0166,-0.0166 0,-0.005 -0.0115,-0.002 -0.0166,0 -0.0452,0.0201 -0.0902,0.0409 -0.13258,0.0663 -0.12689,0.0761 -0.31684,0.18003 -0.39775,0.31489 -0.0145,0.0242 0.058,-0.003 0.0829,-0.0166 0.0635,-0.0339 0.12054,-0.079 0.1823,-0.11601 0.0764,-0.0458 0.15294,-0.0916 0.23203,-0.13258 0.2806,-0.1455 0.14485,-0.0289 0.29831,-0.1823 0.011,-0.011 0.0282,-0.0183 0.0332,-0.0331 0.009,-0.0267 -0.0623,-0.003 -0.0829,0.0166 -0.13211,0.12433 -0.22597,0.24052 -0.33146,0.38117 -0.12197,0.16263 -0.29519,0.33836 -0.33146,0.54691 -0.0113,0.0653 0,0.13258 0,0.19887 0,0.0387 -0.0139,0.0799 0,0.11601 0.0154,0.0403 0.0501,0.0713 0.0829,0.0994 0.12249,0.105 0.24916,0.20556 0.38117,0.29832 0.3581,0.25164 0.92074,0.36681 1.32583,0.46404 1.34577,0.32298 2.00348,0.39165 3.62944,0.62976 1.43461,0.21009 1.81531,0.21533 3.44715,0.28174 0.33065,0.0134 1.13613,-0.004 1.45841,-0.0331 0.83015,-0.0762 0.82662,-0.1143 1.59099,-0.26516 0.56177,-0.11087 1.13217,-0.18605 1.69042,-0.31488 0.037,-0.009 0.51677,-0.13838 0.58005,-0.14916 0.43111,-0.0734 0.88839,-0.11676 1.32583,-0.0663 0.23147,0.0267 0.45058,0.0983 0.67948,0.13258 0.46654,0.07 0.67354,0.0844 1.14353,0 0.0975,-0.0175 0.41014,-0.11558 0.48061,-0.19886 0.20948,-0.24758 0.05,-0.46204 -0.0663,-0.71264 -0.0333,-0.0718 -0.0536,-0.15098 -0.0994,-0.21545 -0.13093,-0.1841 -0.52968,-0.7088 -0.79549,-0.82863 -0.53699,-0.24209 -1.0917,-0.44867 -1.65729,-0.6132 -0.79741,-0.23198 -3.07845,-0.34085 -3.48029,-0.3646 -0.3199,-0.0189 -0.64081,-0.0115 -0.96122,-0.0166 -0.37565,-0.006 -0.75136,-0.008 -1.12695,-0.0166 -0.0996,-0.002 -0.19887,-0.011 -0.29831,-0.0166 -0.12153,-0.005 -0.24296,-0.0143 -0.3646,-0.0166 -0.1657,-0.003 -0.33149,0.003 -0.49719,0 -0.442,-0.008 -0.88375,-0.0293 -1.32582,-0.0332 -1.73615,-0.0149 0.20255,0.009 -0.94465,0.0663 -0.21518,0.0108 -0.4309,0 -0.64634,0 -0.12706,0 -0.25419,0.005 -0.38118,0 -1.04463,-0.0356 -0.83308,-0.0511 -1.64071,-0.0663 -0.18779,-0.004 -0.37586,0.009 -0.56347,0 -0.10489,-0.0175 -0.0659,-0.0166 -0.11601,-0.0166"
     id="path6" />
  <path
     style="fill:#002aff;fill-opacity:1;stroke:none;stroke-width:0;stroke-dasharray:none"
     id="path12"
     d="m 194.32652,338.01772 c 4.4e-4,0.0477 0.0119,0.0965 0.002,0.14302 -0.0394,0.17297 -0.13449,0.27128 -0.27001,0.3869 -0.095,0.0811 -0.19621,0.15596 -0.30383,0.21939 -0.2571,0.15153 -0.5521,0.25381 -0.82792,0.36188 -0.25437,0.10327 -0.56604,0.20614 -0.78383,0.38551 -0.22069,0.18174 -0.3883,0.4308 -0.45308,0.71166 -0.0533,0.23135 -0.0158,0.60642 -0.002,0.8418 0.0221,0.28683 0.0156,0.57456 0.008,0.86177 -0.003,0.13132 -0.003,0.22243 -0.0211,0.34954 -0.006,0.04 -0.0155,0.0792 -0.0233,0.11878 -0.0134,0.10716 0.004,0.21371 0.009,0.32052 0.004,0.0813 -0.0101,0.0969 0.0332,0.17197 0.0153,0.0265 0.0391,0.0472 0.0586,0.0709 0.0265,0.0242 0.0508,0.0513 0.0797,0.0728 0.0941,0.0698 0.19847,0.11306 0.30229,0.16683 0.0833,0.0431 0.16793,0.0841 0.24895,0.13139 0.18735,0.10947 0.42987,0.2787 0.60629,0.39829 0.41678,0.29151 0.81051,0.61407 1.20989,0.92856 0.1,0.0787 0.19019,0.17184 0.29997,0.23622 2.91446,1.70906 5.84639,3.38815 8.76959,5.08222 0.93426,0.3405 1.86867,0.68049 2.81184,0.99562 0.69463,0.22039 1.37275,0.49075 2.07032,0.70188 0.0634,-0.002 0.13129,0.017 0.19004,-0.007 0.18565,-0.0752 0.31235,-0.26399 0.40175,-0.42869 0.0421,-0.0775 0.066,-0.16363 0.0959,-0.2466 0.0252,-0.07 0.0456,-0.14157 0.0694,-0.21199 0.0261,-0.0771 0.0536,-0.15365 0.0805,-0.23048 0.0265,-0.0949 0.0548,-0.18938 0.0796,-0.28476 0.0285,-0.10964 0.0562,-0.21956 0.0804,-0.33023 0.0254,-0.11603 0.0423,-0.23385 0.0685,-0.34971 0.0435,-0.19217 0.0946,-0.38251 0.17701,-0.56232 0.0328,-0.0716 0.077,-0.13747 0.11547,-0.20619 0.0995,-0.13751 0.10422,-0.15867 0.22068,-0.26909 0.0297,-0.0282 0.0632,-0.0521 0.0945,-0.0786 0.0339,-0.0288 0.11486,-0.10128 0.15334,-0.12978 0.0192,-0.0143 0.0402,-0.0259 0.0603,-0.0388 0.0448,-7.5e-4 0.0797,-0.0633 0.12033,-0.0721 0.005,-7.5e-4 0.007,0.01 0.0115,0.01 0.004,10e-5 0.005,-0.007 0.008,-0.009 0.004,-0.002 0.01,-0.003 0.0145,-0.005 0.0241,0.0293 0.0459,-0.0278 0.0665,-0.0177 0.0764,0.0375 -0.0444,0.04 -0.0365,0.0333 0.0166,-0.0139 0.0378,-0.0209 0.0565,-0.0318 0.0275,-0.016 0.0547,-0.0326 0.082,-0.0489 0.19231,-0.0695 0.39607,-0.0831 0.59871,-0.0725 0.23598,0.0123 0.0238,0.0136 0.24294,0.008 0.14655,-0.0121 0.28737,-0.061 0.43474,-0.0643 0.0745,-0.001 0.11881,0.005 0.19131,0.0119 0.0667,0.0106 0.0739,0.0109 0.13625,0.024 0.0203,0.005 0.04,0.0139 0.0607,0.0135 0.0229,-4.9e-4 0.0443,-0.012 0.0668,-0.0162 0.0494,-0.009 0.0607,-0.007 0.11087,-0.005 0.0583,0.002 0.11446,0.0184 0.17179,0.027 0.0115,0.002 0.0236,0.008 0.0348,0.005 0.0203,-0.006 0.0368,-0.0212 0.0551,-0.0317 0.0816,-0.0284 0.1663,-0.0123 0.24767,0.008 0.0105,4.2e-4 0.071,0.0232 0.0781,0.0193 0.0591,-0.0319 0.0524,-0.0643 0.11662,-0.0717 0.0214,0.007 0.0662,0.0314 0.0879,0.0245 0.07,-0.0387 0.035,-0.0254 0.10394,-0.0428 0.0762,-0.004 0.001,0.005 0.0951,-0.0323 0.015,-0.006 0.0325,-0.005 0.0472,-0.0115 0.0668,-0.0299 0.0654,-0.0527 0.14028,-0.0528 0.0308,0.0129 0.0172,0.005 0.0413,0.0253 0,0 -9.20653,-6.43973 -9.20653,-6.43973 v 0 c -0.0477,0.033 -0.0241,0.017 -0.0707,0.048 -0.007,0.004 -0.0391,0.0252 -0.0528,0.0186 -0.007,-0.003 -0.005,-0.0168 -0.0118,-0.0196 -0.0102,-0.004 -0.0221,0.005 -0.0328,0.002 -0.077,-0.0189 0.0329,-0.0264 -0.0707,-0.0104 -0.0452,-0.005 -0.0244,0.004 -0.0615,-0.0259 -0.0166,-0.003 -0.0335,0.005 -0.0502,0.007 -0.0483,0.008 -0.0954,0.0219 -0.14189,0.0375 -0.003,5.5e-4 -0.0486,0.0139 -0.0523,-0.005 -0.003,-0.0152 0.017,-0.0305 0.0115,-0.045 -0.001,-0.005 -0.0781,0.0224 -0.0831,0.0238 -0.0724,0.0261 -0.1454,0.0592 -0.22411,0.0452 -0.0111,-0.008 -0.0199,-0.0217 -0.0334,-0.0249 -0.015,-0.004 -0.0306,0.004 -0.0458,0.006 -0.057,0.01 -0.11025,0.0301 -0.16494,0.048 -0.0431,0.009 -0.06,0.0155 -0.10585,0.0146 -0.0145,-2.7e-4 -0.0288,-0.008 -0.0431,-0.006 -0.0188,0.003 -0.0351,0.0143 -0.053,0.0208 -0.10855,0.04 -0.0244,0.004 -0.12685,0.0505 -0.0288,0.0131 -0.10829,0.0503 -0.13699,0.0598 -0.12915,0.0427 -0.26709,0.04 -0.39966,0.0658 -0.0332,0.009 -0.0674,0.0159 -0.0997,0.028 -0.0723,0.027 -0.13915,0.0668 -0.21017,0.0969 -0.10407,0.0442 -0.1651,0.0674 -0.27764,0.0928 -0.0613,0.0139 -0.12376,0.0224 -0.18564,0.0336 -0.16394,0.0199 -0.23026,0.0208 -0.38394,0.0642 -0.0653,0.0184 -0.13225,0.0343 -0.1929,0.0646 -0.0948,0.0474 -0.14025,0.11601 -0.20214,0.19323 -0.0209,0.0225 -0.0418,0.045 -0.0628,0.0674 -0.0202,0.0216 -0.0433,0.041 -0.0608,0.0647 -0.0658,0.0892 -0.0904,0.20149 -0.11559,0.30687 -0.0341,0.18834 -0.0651,0.37748 -0.0803,0.56844 -0.006,0.0736 -0.009,0.14758 -0.0128,0.22138 -0.005,0.0843 -0.009,0.16862 -0.0136,0.25292 -0.005,0.0919 -0.005,0.1841 -0.0148,0.27563 -0.0344,0.33788 -0.1086,0.69337 -0.33106,0.96163 -0.0445,0.0537 -0.0991,0.0983 -0.14867,0.14748 -0.0638,0.0547 -0.19498,0.18214 -0.28644,0.2064 -0.0301,0.008 -0.0769,0.007 -0.0913,-0.0205 -0.0357,-0.0686 0.0406,-0.17856 0.0445,-0.24285 6.8e-4,-0.0112 -0.0169,-0.0146 -0.0254,-0.022 -0.037,0.007 -0.12404,0.0256 -0.15563,0.0282 -0.29934,0.0242 -0.60015,-0.0382 -0.88922,-0.10649 -0.12737,-0.0376 -0.25566,-0.0722 -0.38211,-0.11273 -0.27901,-0.0895 -0.6153,-0.21289 -0.88504,-0.32282 -0.33359,-0.13594 -0.63537,-0.27052 -0.95226,-0.44364 -0.16251,-0.0888 -0.31863,-0.18874 -0.47796,-0.28311 2.66057,1.54495 5.31832,3.09476 7.98169,4.63487 0.1033,0.0597 -0.20348,-0.12497 -0.30112,-0.19355 -0.0955,-0.067 -0.18604,-0.14091 -0.27774,-0.21306 -0.24044,-0.18917 -0.47664,-0.38499 -0.69078,-0.60402 -0.0721,-0.0778 -0.17472,-0.18076 -0.23639,-0.27214 -0.0694,-0.10284 -0.0688,-0.19328 -0.20515,-0.22763 -0.0187,-0.004 -0.037,-0.0119 -0.0562,-0.0134 -0.17194,-0.0129 0.0489,0.0297 -0.16172,-4.5e-4 -0.11601,-0.0166 -0.21351,-0.077 -0.30904,-0.14123 -0.0457,-0.0407 -0.0947,-0.078 -0.13734,-0.12186 -0.22799,-0.23456 -0.44106,-0.58262 -0.55476,-0.8872 -0.0342,-0.0916 -0.0556,-0.1874 -0.0834,-0.28109 -0.042,-0.41038 -0.024,-0.0844 -0.0101,-0.41221 0.004,-0.0947 -0.0172,-0.17937 0.0244,-0.27092 0.0818,-0.18005 0.1826,-0.23736 0.3314,-0.37065 0.1053,-0.0568 0.20429,-0.12729 0.31591,-0.17034 0.31249,-0.12052 0.58653,-0.14791 0.92088,-0.15506 0.2792,-0.006 0.62038,0.0229 0.8975,0.0741 0.0944,0.0175 0.18579,0.0485 0.27869,0.0728 z" />
  <path
     style="fill:#002aff;fill-opacity:1;stroke:none;stroke-width:0;stroke-dasharray:none"
     id="path13"
     d="m 199.22252,350.61553 c 0.13068,-0.0493 0.27176,-0.0277 0.4064,-0.0451 0.0545,-0.007 0.10699,-0.0247 0.16101,-0.0346 0.11197,-0.0203 0.16338,-0.0226 0.27386,-0.0324 0.0285,0.013 0.0644,0.0158 0.0855,0.0389 0.0541,0.0595 0.0767,0.28046 0.007,0.24104 -3.20145,-1.8565 -6.40291,-3.713 -9.60436,-5.56951 0.0781,-0.0221 0.0383,-0.005 0.11652,-0.0583 0.0199,-0.013 0.0391,-0.0505 0.0599,-0.0389 0.0222,0.0123 -0.004,0.0528 0.007,0.076 0.009,0.0206 0.0346,0.0292 0.0485,0.047 0.0191,0.0246 0.036,0.0512 0.0497,0.0793 0.0118,0.0242 0.0745,0.19703 0.0829,0.21959 0.0379,0.0793 0.0244,0.17301 0.0555,0.25382 0.009,0.0245 0.0844,0.0951 0.0967,0.11681 0.024,0.0425 0.0489,0.14627 0.0609,0.19051 3.23159,1.86191 6.46694,3.7173 9.69476,5.5857 0.0183,0.0106 0.0213,0.0393 0.04,0.0491 0.0693,0.0367 0.24927,-0.0393 0.31944,-0.061 0.0166,0.009 0.0311,0.0236 0.0497,0.0269 0.0463,0.008 0.22095,-0.003 0.2729,-0.006 0.0337,-0.002 0.0676,-0.0161 0.10079,-0.0101 0.0268,0.005 0.047,0.0274 0.0706,0.0411 0.0308,0.0549 0.3227,0.0266 0.34847,0.0399 0.0631,0.0326 0.0258,0.14878 0.0217,0.18352 -3.19811,-1.86128 -6.39622,-3.72255 -9.59433,-5.58382 0.0713,-0.0867 0.19724,-0.28867 0.26945,-0.0925 0.0245,0.0865 0.008,0.14482 -0.0115,0.23343 0,0 10.0942,4.98157 10.0942,4.98157 v 0 c -0.0141,-0.002 -0.0365,0.008 -0.0424,-0.005 -0.0231,-0.0501 0.0325,-0.11557 0.01,-0.16512 0.39924,-4.40835 5.53206,1.33569 -9.54491,-6.37352 -0.0456,0.0277 -0.14837,0.10049 -0.21217,0.10667 -0.0512,0.005 -0.24679,-0.0954 -0.30652,-0.0616 -0.037,0.004 -0.0741,0.0151 -0.11124,0.012 -0.0286,-0.002 -0.0541,-0.0189 -0.0812,-0.0281 -0.10404,-0.0354 -0.2028,-0.0952 -0.31373,-0.0944 -0.0323,-0.052 -0.0454,-0.11008 -0.0756,-0.16194 -0.009,-0.0157 -0.0187,-0.034 -0.035,-0.042 -0.0195,-0.01 -0.0836,-0.018 -0.0648,-0.007 3.18838,1.85076 6.38556,3.6863 9.57835,5.52945 -0.0472,0.015 -0.10636,0.0448 -0.15905,0.0229 -0.0343,-0.0143 -0.0824,-0.0922 -0.11742,-0.10363 -0.0296,-0.01 -0.0622,0.002 -0.0932,0.003 -0.0269,-0.009 -0.0538,-0.0187 -0.0807,-0.028 -0.0343,-0.0345 -0.0833,-0.0782 -0.10596,-0.12309 -0.012,-0.0238 -0.0179,-0.0503 -0.0237,-0.0763 -0.005,-0.0244 0.002,-0.0525 -0.01,-0.0742 -0.007,-0.0117 -0.037,0.002 -0.0388,-0.011 -0.006,-0.0439 0.0124,-0.0878 0.0185,-0.13164 0.004,-0.0588 0.0201,-0.19807 -0.006,-0.21349 -3.21597,-1.89934 -6.4288,-3.80511 -9.6827,-5.63873 -0.0504,-0.0284 -0.0914,0.0711 -0.13903,0.10404 -0.0385,0.0267 -0.0779,0.0526 -0.11925,0.0747 -0.036,0.0193 -0.0748,0.0328 -0.11221,0.0492 -0.0794,0.0142 -0.15289,0.0299 -0.23399,0.0334 -0.0431,10e-4 -0.0863,-0.005 -0.12932,-0.002 -0.15821,0.007 -0.31616,0.0385 -0.4753,0.0188 z" />
</svg>
