<svg width="78" height="76" viewBox="0 0 78 76" fill="none" xmlns="http://www.w3.org/2000/svg">
<path d="M64.3988 48.408C66.2692 48.408 67.7853 46.8918 67.7853 45.0215C67.7853 43.1511 66.2692 41.635 64.3988 41.635C62.5284 41.635 61.0123 43.1511 61.0123 45.0215C61.0123 46.8918 62.5284 48.408 64.3988 48.408Z" fill="#FF7E00"/>
<path fill-rule="evenodd" clip-rule="evenodd" d="M53.4773 0.947446C59.2916 -0.829165 65.3541 2.86449 66.4419 8.84614L67.5692 15.0474C71.6276 16.3792 74.5583 20.1986 74.5583 24.7024V34.0624C76.6366 35.9226 77.9448 38.626 77.9448 41.635V48.408C77.9448 51.4169 76.6366 54.1203 74.5583 55.9805V65.3405C74.5583 70.9516 70.0099 75.5 64.3988 75.5H10.2147C4.60379 75.5 0.0552063 70.9516 0.0552063 65.3405V24.7024C0.0552063 19.667 3.71852 15.4872 8.52546 14.6827L53.4773 0.947446ZM67.7853 51.7945C69.6557 51.7945 71.1718 50.2783 71.1718 48.408V41.635C71.1718 39.7646 69.6557 38.2484 67.7853 38.2484H57.6258C55.7554 38.2484 54.2393 39.7646 54.2393 41.635V48.408C54.2393 50.2783 55.7554 51.7945 57.6258 51.7945H67.7853ZM67.7853 58.5675V65.3405C67.7853 67.2109 66.2692 68.727 64.3988 68.727H10.2147C8.34442 68.727 6.82822 67.2109 6.82822 65.3405V24.7024C6.82822 22.8321 8.34442 21.3159 10.2147 21.3159H64.3988C66.2614 21.3159 67.7724 22.8194 67.7853 24.6788V31.4754H57.6258C52.0147 31.4754 47.4663 36.0239 47.4663 41.635V48.408C47.4663 54.0191 52.0147 58.5675 57.6258 58.5675H67.7853ZM59.9808 9.82568L60.8132 14.5429H30.5338L55.6725 7.17053C57.6139 6.58815 59.6286 7.82981 59.9808 9.82568Z" fill="#FF7E00"/>
</svg>
