<svg width="20" height="21" viewBox="0 0 20 21" fill="none" xmlns="http://www.w3.org/2000/svg">
<path d="M14.2857 6.21429H5.71429V14.7857H14.2857V6.21429Z" fill="#4D4D4D"/>
<path d="M20 7.91071V5.94643H18.5714V3C18.5714 2.71584 18.4585 2.44332 18.2576 2.24239C18.0567 2.04145 17.7842 1.92857 17.5 1.92857H14.5536V0.5H12.5893V1.92857H10.9821V0.5H9.01786V1.92857H7.41071V0.5H5.44643V1.92857H2.5C2.21584 1.92857 1.94332 2.04145 1.74239 2.24239C1.54145 2.44332 1.42857 2.71584 1.42857 3V5.94643H0V7.91071H1.42857V9.51786H0V11.4821H1.42857V13.0893H0V15.0536H1.42857V18C1.42857 18.2842 1.54145 18.5567 1.74239 18.7576C1.94332 18.9585 2.21584 19.0714 2.5 19.0714H5.44643V20.5H7.41071V19.0714H9.01786V20.5H10.9821V19.0714H12.5893V20.5H14.5536V19.0714H17.5C17.7842 19.0714 18.0567 18.9585 18.2576 18.7576C18.4585 18.5567 18.5714 18.2842 18.5714 18V15.0536H20V13.0893H18.5714V11.4821H20V9.51786H18.5714V7.91071H20ZM4.28571 4.78571H15.7143V16.2143H4.28571V4.78571Z" fill="#4D4D4D"/>
</svg>
