<svg width="35" height="42" viewBox="0 0 35 42" fill="none" xmlns="http://www.w3.org/2000/svg">
<path d="M28.9167 16H27.6667V11.23C27.6667 5.49375 23.5167 1 17.6204 1C11.7004 1 7.66666 5.58875 7.66666 11.23V16H6.41666C3.65916 16 1.41666 18.2425 1.41666 21V36C1.41666 38.7575 3.65916 41 6.41666 41H28.9167C31.6742 41 33.9167 38.7575 33.9167 36V21C33.9167 18.2425 31.6742 16 28.9167 16ZM10.1667 11.23C10.1667 6.96875 13.0792 3.5 17.6204 3.5C22.1154 3.5 25.1667 6.895 25.1667 11.23V16H10.1667V11.23ZM31.4167 36C31.4167 37.3775 30.2942 38.5 28.9167 38.5H6.41666C5.03791 38.5 3.91666 37.3775 3.91666 36V21C3.91666 19.6225 5.03791 18.5 6.41666 18.5H28.9167C30.2942 18.5 31.4167 19.6225 31.4167 21V36ZM17.6667 23.5C16.2867 23.5 15.1667 24.6187 15.1667 26C15.1667 26.9225 15.6729 27.72 16.4167 28.1537V32.25C16.4167 32.94 16.9767 33.5 17.6667 33.5C18.3567 33.5 18.9167 32.94 18.9167 32.25V28.1537C19.6604 27.7212 20.1667 26.9225 20.1667 26C20.1667 24.6187 19.0479 23.5 17.6667 23.5Z" fill="#FAFAFA" stroke="#FAFAFA"/>
</svg>
