<svg width="170" height="36" viewBox="0 0 170 36" fill="none" xmlns="http://www.w3.org/2000/svg">
<path fill-rule="evenodd" clip-rule="evenodd" d="M52.2637 11.0868C53.6909 11.0868 54.9226 11.3406 55.9582 11.8408C56.9987 12.3449 57.8586 13.0244 58.5468 13.8789C59.2263 14.7377 59.7322 15.742 60.0587 16.8918C60.3832 18.0459 60.5459 19.2857 60.5459 20.6137C60.5459 22.6519 60.1709 24.5796 59.4123 26.3956C58.6548 28.214 57.6255 29.7913 56.3168 31.1373C55.0095 32.4815 53.4656 33.5406 51.6851 34.3228C49.9071 35.1073 47.9752 35.4979 45.9001 35.4979C45.6316 35.4979 45.1598 35.4912 44.4937 35.4761C43.8272 35.4627 43.0609 35.3949 42.2032 35.2789C41.3398 35.1597 40.4273 34.9826 39.4627 34.7453C38.4995 34.5122 37.5845 34.185 36.7226 33.7705L44.4265 1.56441L51.3266 0.5L48.5689 11.9283C49.1594 11.6636 49.7542 11.4576 50.3479 11.309C50.9452 11.1645 51.5818 11.0868 52.2637 11.0868ZM46.4763 30.0528C47.5154 30.0528 48.494 29.799 49.4143 29.2992C50.337 28.8003 51.1332 28.1251 51.7994 27.2839C52.4659 26.4406 52.9949 25.4887 53.3798 24.4253C53.7647 23.363 53.9591 22.2546 53.9591 21.1006C53.9591 19.6836 53.7218 18.5777 53.2466 17.7791C52.7717 16.9825 51.8939 16.5832 50.6186 16.5832C50.2006 16.5832 49.6618 16.6619 48.9942 16.8032C48.3246 16.9551 47.7252 17.2669 47.1877 17.7365L44.2504 29.8746C44.4276 29.9041 44.5847 29.9347 44.718 29.9621C44.8487 29.9917 44.9928 30.0134 45.137 30.0289C45.2895 30.0465 45.4635 30.0539 45.6734 30.0539C45.8836 30.0539 46.1497 30.0528 46.4763 30.0528Z" fill="#FAFAFA"/>
<path fill-rule="evenodd" clip-rule="evenodd" d="M67.7047 34.8799H61.1133L66.6796 11.5782H73.316L67.7047 34.8799ZM70.9113 8.74144C69.9906 8.74144 69.1572 8.46795 68.4172 7.92309C67.6706 7.38069 67.3011 6.54478 67.3011 5.41885C67.3011 4.79982 67.4273 4.2177 67.6783 3.67073C67.9321 3.12376 68.2654 2.65097 68.6823 2.25164C69.0988 1.85477 69.5804 1.53734 70.1281 1.2976C70.6789 1.06244 71.2653 0.94538 71.8899 0.94538C72.8091 0.94538 73.6394 1.21781 74.3815 1.76372C75.1215 2.31174 75.4944 3.14766 75.4944 4.26691C75.4944 4.8884 75.3689 5.47263 75.1151 6.0196C74.8631 6.56657 74.5312 7.03691 74.1143 7.43835C73.702 7.83557 73.2148 8.15193 72.6682 8.38921C72.1173 8.62754 71.5345 8.74144 70.9113 8.74144Z" fill="#FAFAFA"/>
<path fill-rule="evenodd" clip-rule="evenodd" d="M79.0901 5.77529L85.9937 4.71089L84.2983 11.5782H91.6911L90.3561 16.9815H83.0071L81.0499 25.1329C80.8695 25.8124 80.7673 26.4469 80.7388 27.0353C80.7068 27.6284 80.7817 28.137 80.9595 28.5648C81.1367 28.9937 81.4555 29.3241 81.9174 29.5593C82.3772 29.7969 83.0356 29.9161 83.8979 29.9161C84.6083 29.9161 85.3012 29.8493 85.9708 29.7147C86.6359 29.5846 87.3112 29.4007 87.9942 29.1614L88.4856 34.2145C87.5949 34.5393 86.6306 34.8195 85.5912 35.0546C84.551 35.2923 83.3183 35.4068 81.8942 35.4068C79.847 35.4068 78.2591 35.1059 77.1286 34.5034C75.9992 33.896 75.2009 33.0678 74.7225 32.0189C74.2507 30.9742 74.0409 29.7684 74.1003 28.4109C74.1618 27.0498 74.3674 25.6187 74.7225 24.1124L79.0901 5.77529Z" fill="#FAFAFA"/>
<path fill-rule="evenodd" clip-rule="evenodd" d="M91.4008 25.5786C91.4008 23.5711 91.7274 21.6796 92.3805 19.9061C93.0315 18.1327 93.9704 16.5825 95.1888 15.2509C96.403 13.926 97.8807 12.8771 99.6204 12.108C101.352 11.3409 103.291 10.9546 105.429 10.9546C106.766 10.9546 107.961 11.0794 109.012 11.3322C110.068 11.586 111.023 11.9153 111.887 12.3277L109.614 17.4708C109.02 17.231 108.403 17.0201 107.767 16.8275C107.129 16.6328 106.35 16.5385 105.43 16.5385C103.231 16.5385 101.491 17.2926 100.197 18.7957C98.9079 20.3009 98.2579 22.326 98.2579 24.8675C98.2579 26.3738 98.5845 27.5904 99.2397 28.5226C99.8922 29.4535 101.096 29.9164 102.846 29.9164C103.709 29.9164 104.541 29.8268 105.34 29.6517C106.143 29.4742 106.853 29.2524 107.478 28.9877L107.97 34.2584C107.136 34.5811 106.217 34.8722 105.209 35.126C104.198 35.3724 102.995 35.4982 101.6 35.4982C99.7589 35.4982 98.1996 35.2311 96.9253 34.7027C95.6496 34.1667 94.5951 33.4545 93.7648 32.5528C92.9303 31.6494 92.3309 30.5935 91.9604 29.3825C91.5885 28.1757 91.4008 26.9046 91.4008 25.5786Z" fill="#FAFAFA"/>
<path fill-rule="evenodd" clip-rule="evenodd" d="M120.677 35.5C119.104 35.5 117.738 35.2627 116.579 34.791C115.423 34.3185 114.467 33.6566 113.709 32.7979C112.951 31.9433 112.383 30.9302 111.994 29.7639C111.605 28.5989 111.419 27.3067 111.419 25.8922C111.419 24.1167 111.706 22.3422 112.285 20.5719C112.861 18.7999 113.715 17.2068 114.848 15.7902C115.971 14.3711 117.355 13.2114 118.987 12.3066C120.616 11.4095 122.49 10.9578 124.595 10.9578C126.139 10.9578 127.499 11.1961 128.674 11.6679C129.843 12.1403 130.806 12.8068 131.568 13.661C132.321 14.5198 132.894 15.5286 133.279 16.6971C133.667 17.8599 133.857 19.1553 133.857 20.5709C133.857 22.3411 133.575 24.1156 133.014 25.8911C132.452 27.6568 131.619 29.2542 130.52 30.6733C129.422 32.0899 128.05 33.2485 126.402 34.1498C124.754 35.0493 122.843 35.5 120.677 35.5ZM123.971 16.5407C122.993 16.5407 122.13 16.8229 121.39 17.3808C120.647 17.9443 120.024 18.653 119.521 19.5075C119.014 20.3652 118.636 21.3038 118.382 22.3204C118.131 23.3409 118.006 24.3047 118.006 25.2215C118.006 26.6996 118.246 27.8505 118.717 28.6798C119.195 29.5037 120.053 29.9182 121.301 29.9182C122.282 29.9182 123.14 29.6384 123.885 29.0749C124.623 28.5156 125.246 27.8069 125.753 26.9503C126.258 26.0968 126.638 25.1561 126.892 24.1374C127.142 23.1201 127.268 22.1506 127.268 21.2359C127.268 19.7613 127.03 18.6083 126.555 17.7801C126.08 16.9541 125.218 16.5407 123.971 16.5407Z" fill="#FAFAFA"/>
<path fill-rule="evenodd" clip-rule="evenodd" d="M141.038 34.8799H134.443L140.009 11.5782H146.648L141.038 34.8799ZM144.24 8.74144C143.321 8.74144 142.488 8.46795 141.749 7.92309C141.005 7.38069 140.633 6.54478 140.633 5.41885C140.633 4.79982 140.76 4.2177 141.012 3.67073C141.264 3.12376 141.598 2.65097 142.015 2.25164C142.429 1.85477 142.915 1.53734 143.462 1.2976C144.009 1.06244 144.596 0.94538 145.219 0.94538C146.141 0.94538 146.973 1.21781 147.714 1.76372C148.456 2.31174 148.83 3.14766 148.83 4.26691C148.83 4.8884 148.697 5.47263 148.448 6.0196C148.198 6.56657 147.865 7.03691 147.449 7.43835C147.031 7.83557 146.552 8.15193 146.004 8.38921C145.452 8.62754 144.867 8.74144 144.24 8.74144Z" fill="#FAFAFA"/>
<path fill-rule="evenodd" clip-rule="evenodd" d="M151.394 12.6405C151.895 12.495 152.453 12.3199 153.062 12.1298C153.672 11.9392 154.352 11.7621 155.113 11.6025C155.867 11.4383 156.716 11.3058 157.65 11.201C158.585 11.0959 159.648 11.0446 160.833 11.0446C164.308 11.0446 166.705 12.051 168.028 14.0596C169.348 16.0682 169.578 18.8164 168.719 22.2986L165.689 34.8799H159.054L161.993 22.5633C162.171 21.7942 162.313 21.0503 162.416 20.3241C162.522 19.6052 162.515 18.9707 162.393 18.4213C162.277 17.8789 162 17.4356 161.573 17.0911C161.137 16.7509 160.48 16.5825 159.588 16.5825C158.729 16.5825 157.855 16.6742 156.962 16.8514L152.642 34.8799H146.005L151.394 12.6405Z" fill="#FAFAFA"/>
<path fill-rule="evenodd" clip-rule="evenodd" d="M18.2993 35.4982C28.0126 35.4982 35.8867 27.6642 35.8867 18.0005C35.8867 8.33683 28.0126 0.502813 18.2993 0.502813C8.58581 0.502813 0.711609 8.33683 0.711609 18.0005C0.711609 27.6642 8.58581 35.4982 18.2993 35.4982ZM26.0539 15.5061C26.4033 13.1769 24.6211 11.9252 22.184 11.0896L22.9749 7.93329L21.0451 7.45416L20.2752 10.5272C19.7683 10.4013 19.247 10.2822 18.7282 10.1651L19.5033 7.07241L17.5745 6.59293L16.7828 9.7482C16.3627 9.65293 15.9503 9.55908 15.5501 9.45924L15.5523 9.4494L12.8901 8.78889L12.3765 10.84C12.3765 10.84 13.8083 11.1662 13.7786 11.187C14.5604 11.3817 14.7023 11.8956 14.6781 12.3038L13.7775 15.8977C13.8313 15.9107 13.9006 15.9294 13.9787 15.9624C13.9138 15.9448 13.8456 15.9283 13.7742 15.9107L12.5118 20.9477C12.4161 21.1829 12.1731 21.5375 11.6266 21.4029C11.6464 21.4303 10.2234 21.0549 10.2234 21.0549L9.26456 23.254L11.7761 23.8766C12.2435 23.9926 12.702 24.1149 13.1518 24.2298L12.3534 27.421L14.2811 27.9001L15.0728 24.7431C15.5996 24.884 16.1109 25.0166 16.6112 25.1399L15.8228 28.2822L17.7526 28.7613L18.5521 25.5765C21.8444 26.1959 24.3195 25.9463 25.361 22.9837C26.2012 20.5976 25.3192 19.2224 23.5873 18.3253C24.8496 18.0364 25.7997 17.2117 26.0539 15.5061ZM21.643 21.6599C21.0461 24.0449 17.0104 22.7552 15.7018 22.4311L16.7619 18.2041C18.0704 18.5289 22.2666 19.1721 21.643 21.6599ZM22.2402 15.472C21.6961 17.6406 18.3366 16.5389 17.2468 16.2696L18.2079 12.4342C19.2976 12.7055 22.8065 13.2096 22.2402 15.472Z" fill="#F7931A"/>
<path fill-rule="evenodd" clip-rule="evenodd" d="M26.0539 15.5061C26.4033 13.1769 24.6211 11.9252 22.184 11.0896L22.9749 7.93329L21.0451 7.45416L20.2752 10.5272C19.7683 10.4013 19.247 10.2822 18.7282 10.1651L19.5033 7.07241L17.5745 6.59293L16.7828 9.7482C16.3627 9.65293 15.9503 9.55908 15.5501 9.45924L15.5523 9.4494L12.8901 8.78889L12.3765 10.84C12.3765 10.84 13.8083 11.1662 13.7786 11.187C14.5604 11.3817 14.7023 11.8956 14.6781 12.3038L13.7775 15.8977C13.8313 15.9107 13.9006 15.9294 13.9787 15.9624C13.9138 15.9448 13.8456 15.9283 13.7742 15.9107L12.5118 20.9477C12.4161 21.1829 12.1731 21.5375 11.6266 21.4029C11.6464 21.4303 10.2234 21.0549 10.2234 21.0549L9.26456 23.254L11.7761 23.8766C12.2435 23.9926 12.702 24.1149 13.1518 24.2298L12.3534 27.421L14.2811 27.9001L15.0728 24.7431C15.5996 24.884 16.1109 25.0166 16.6112 25.1399L15.8228 28.2822L17.7526 28.7613L18.5521 25.5765C21.8444 26.1959 24.3195 25.9463 25.361 22.9837C26.2012 20.5976 25.3192 19.2224 23.5873 18.3253C24.8496 18.0364 25.7997 17.2117 26.0539 15.5061ZM15.7018 22.4311C17.0104 22.7552 21.0461 24.0449 21.643 21.6599C22.2666 19.1721 18.0704 18.5289 16.7619 18.2041L15.7018 22.4311ZM17.2468 16.2696C18.3366 16.5389 21.6961 17.6406 22.2402 15.472C22.8065 13.2096 19.2976 12.7055 18.2079 12.4342L17.2468 16.2696Z" fill="#FAFAFA"/>
</svg>
