<svg width="48" height="42" viewBox="0 0 48 42" fill="none" xmlns="http://www.w3.org/2000/svg">
<path d="M33.0557 41C30.8599 41 29.0413 39.3505 28.7727 37.2271H19.2273C18.9587 39.3505 17.1417 41 14.9459 41C12.566 41 10.6297 39.0638 10.6297 36.6838C10.6297 35.2833 11.2998 34.0383 12.3351 33.249L7.56011 24.9804C7.047 25.1947 6.48258 25.3154 5.891 25.3154C3.51107 25.3154 1.57483 23.3792 1.57483 20.9992C1.57483 18.6193 3.51107 16.6831 5.891 16.6831C6.48258 16.6831 7.047 16.8023 7.56011 17.0196L12.3351 8.75099C11.2983 7.9617 10.6297 6.71515 10.6297 5.31617C10.6297 2.93624 12.566 1 14.9459 1C17.1417 1 18.9602 2.64799 19.2273 4.77287H28.7742C29.0429 2.64799 30.8599 1 33.0557 1C35.4356 1 37.3718 2.93624 37.3718 5.31617C37.3718 6.71515 36.7018 7.9617 35.6665 8.75099L40.4384 17.0196C40.9531 16.8023 41.5175 16.6831 42.1091 16.6831C44.489 16.6831 46.4252 18.6193 46.4252 20.9992C46.4252 23.3792 44.489 25.3154 42.1091 25.3154C41.516 25.3154 40.9515 25.1947 40.4384 24.9774L35.665 33.246C36.7018 34.0353 37.3718 35.2818 37.3718 36.6808C37.3718 39.0638 35.4356 41 33.0557 41ZM33.0557 33.4543C31.2749 33.4543 29.8261 34.903 29.8261 36.6838C29.8261 38.4646 31.2749 39.9134 33.0557 39.9134C34.8365 39.9134 36.2853 38.4646 36.2853 36.6838C36.2853 34.903 34.8365 33.4543 33.0557 33.4543ZM14.9459 33.4543C13.1651 33.4543 11.7163 34.903 11.7163 36.6838C11.7163 38.4646 13.1651 39.9134 14.9459 39.9134C16.7267 39.9134 18.1755 38.4646 18.1755 36.6838C18.1755 34.903 16.7267 33.4543 14.9459 33.4543ZM19.2273 36.139H28.7727C28.9221 34.9634 29.5454 33.9327 30.4449 33.2475L26.7037 26.7702H21.2949L17.5552 33.2475C18.4562 33.9327 19.0794 34.9634 19.2273 36.139ZM8.50031 24.4341L13.2753 32.7027C14.303 32.2696 15.5873 32.2696 16.6165 32.7027L20.3562 26.2254L17.6518 21.541H10.1725C10.0246 22.7197 9.40128 23.7489 8.50031 24.4341ZM33.0557 32.3662C33.6488 32.3662 34.2132 32.4869 34.7263 32.7042L39.4997 24.4356C38.5988 23.7504 37.9755 22.7197 37.8276 21.5425H30.3513L27.6469 26.2269L31.3866 32.7042C31.8982 32.4869 32.4626 32.3662 33.0557 32.3662ZM21.2964 25.6836H26.7052L29.4096 20.9992L26.7052 16.3148H21.2964L18.592 20.9992L21.2964 25.6836ZM42.1106 17.7697C40.3298 17.7697 38.881 19.2184 38.881 20.9992C38.881 22.78 40.3298 24.2288 42.1106 24.2288C43.8914 24.2288 45.3402 22.78 45.3402 20.9992C45.3402 19.2184 43.8914 17.7697 42.1106 17.7697ZM5.891 17.7697C4.1102 17.7697 2.66142 19.2184 2.66142 20.9992C2.66142 22.78 4.1102 24.2288 5.891 24.2288C7.67179 24.2288 9.12057 22.78 9.12057 20.9992C9.12057 19.2184 7.67179 17.7697 5.891 17.7697ZM30.3513 20.456H37.8276C37.977 19.2803 38.6003 18.2496 39.4997 17.5644L34.7263 9.29579C33.6971 9.72892 32.4113 9.72892 31.3851 9.29579L27.6454 15.7716L30.3513 20.456ZM10.1725 20.456H17.6503L20.3547 15.7716L16.615 9.29579C15.5858 9.72892 14.3015 9.72892 13.2738 9.29579L8.50031 17.5644C9.40128 18.2496 10.0246 19.2803 10.1725 20.456ZM21.2964 15.2283H26.7052L30.4464 8.75099C29.5454 8.06433 28.9221 7.03509 28.7742 5.85795H19.2289C19.081 7.03509 18.4577 8.06433 17.5582 8.75099L21.2964 15.2283ZM33.0557 2.08659C31.2749 2.08659 29.8261 3.53537 29.8261 5.31617C29.8261 7.09696 31.2749 8.54575 33.0557 8.54575C34.8365 8.54575 36.2853 7.09696 36.2853 5.31617C36.2853 3.53537 34.8365 2.08659 33.0557 2.08659ZM14.9459 2.08659C13.1651 2.08659 11.7163 3.53537 11.7163 5.31617C11.7163 7.09696 13.1651 8.54575 14.9459 8.54575C16.7267 8.54575 18.1755 7.09696 18.1755 5.31617C18.1755 3.53537 16.7267 2.08659 14.9459 2.08659Z" stroke="#FAFAFA" stroke-width="1.5"/>
</svg>
