<svg width="42" height="45" viewBox="0 0 42 45" fill="none" xmlns="http://www.w3.org/2000/svg">
<path d="M14.8105 29.7252L13.3778 31.4327M27.7056 14.3575L26.2728 16.065M14.5653 17.8803L17.8644 10.2202C18.326 9.14835 18.5568 8.6125 18.8691 8.13312C19.2003 7.62457 19.5993 7.16349 20.0548 6.76271C20.4844 6.38469 20.9815 6.07932 21.9759 5.4684C25.0343 3.58946 26.5636 2.64991 28.0772 2.49274C29.6746 2.32698 31.2783 2.74153 32.595 3.66077C33.8428 4.53175 34.7252 6.09479 36.4896 9.22075L38.1116 12.0943C38.9877 13.6462 39.4258 14.422 39.5485 15.2323C39.6568 15.9482 39.5893 16.6796 39.3515 17.3635C39.0826 18.1376 38.5098 18.8202 37.3642 20.1854L35.8928 21.939C35.4892 22.4201 35.2873 22.6606 35.0566 22.8686C34.8517 23.0532 34.6301 23.2184 34.3949 23.3621C34.1297 23.5239 33.8416 23.6488 33.2653 23.8985L32.2088 24.3566C29.809 25.3967 28.6093 25.9169 27.6443 26.7087C26.7896 27.41 26.073 28.2641 25.5307 29.2276C24.9185 30.3154 24.6146 31.5872 24.007 34.1311L23.7393 35.2513C23.5934 35.8621 23.5204 36.1675 23.4072 36.4567C23.3065 36.7134 23.1822 36.9603 23.0361 37.1942C22.8713 37.4574 22.6695 37.6979 22.2658 38.179L20.7944 39.9326C19.6489 41.2978 19.0761 41.9804 18.3604 42.3797C17.7282 42.7326 17.0197 42.9262 16.2958 42.9437C15.4766 42.9636 14.6364 42.667 12.9559 42.0738L9.8444 40.9753C6.45961 39.7805 4.76706 39.1829 3.69261 38.1053C2.55874 36.9681 1.87197 35.4608 1.75785 33.8589C1.64972 32.3411 2.30942 30.6719 3.62883 27.3336C4.05775 26.2483 4.27222 25.7056 4.56977 25.2171C4.88547 24.6987 5.27029 24.2258 5.71359 23.8112C6.1314 23.4205 6.61908 23.1002 7.59446 22.4594L14.5653 17.8803Z" stroke="#FAFAFA" stroke-width="3" stroke-linecap="round" stroke-linejoin="round"/>
</svg>
