<svg width="41" height="44" viewBox="0 0 41 44" fill="none" xmlns="http://www.w3.org/2000/svg">
<path d="M20.3233 22.9955C22.5336 22.9955 24.3253 21.2038 24.3253 18.9935C24.3253 16.7832 22.5336 14.9915 20.3233 14.9915C18.113 14.9915 16.3213 16.7832 16.3213 18.9935C16.3213 21.2038 18.113 22.9955 20.3233 22.9955ZM20.3233 22.9955V28.9985M38.1523 20.2341C38.1523 30.019 31.0487 39.1836 21.3439 41.8649C20.6835 42.045 19.9632 42.045 19.3028 41.8649C9.59789 39.1836 2.49435 30.019 2.49435 20.2341V11.4496C2.49435 9.80883 3.735 7.94792 5.27577 7.32761L16.4214 2.76538C18.9226 1.74487 21.744 1.74487 24.2453 2.76538L35.3909 7.32761C36.9116 7.94792 38.1723 9.80883 38.1723 11.4496L38.1523 20.2341Z" stroke="#FAFAFA" stroke-width="4" stroke-miterlimit="10" stroke-linecap="round" stroke-linejoin="round"/>
</svg>
