<svg width="92" height="76" viewBox="0 0 92 76" fill="none" xmlns="http://www.w3.org/2000/svg">
<path fill-rule="evenodd" clip-rule="evenodd" d="M59.7204 1.72038C61.3475 0.0932077 63.9859 0.0932077 65.6129 1.72038L89.1905 25.2978C92.3401 28.4477 90.1092 33.8334 85.6551 33.8334H4.33327C2.0321 33.8334 0.166595 31.968 0.166595 29.6667C0.166595 27.3655 2.0321 25.5 4.33327 25.5H77.6075L59.7204 7.61297C58.0933 5.98576 58.0933 3.34759 59.7204 1.72038ZM14.3925 50.5001H87.6667C89.968 50.5001 91.8334 48.6347 91.8334 46.3334C91.8334 44.0321 89.968 42.1667 87.6667 42.1667H6.3451C1.8906 42.1667 -0.340259 47.5526 2.80956 50.7022L26.387 74.2797C28.0142 75.9068 30.6524 75.9068 32.2796 74.2797C33.9068 72.6526 33.9068 70.0143 32.2796 68.3872L14.3925 50.5001Z" fill="#FF7E00"/>
</svg>
