<svg width="42" height="46" viewBox="0 0 42 46" fill="none" xmlns="http://www.w3.org/2000/svg">
<path d="M16.5523 5.19476L20.8899 3.026C20.9591 2.99133 21.0409 2.99133 21.1101 3.026L25.4477 5.19476M16.5523 20.7616L19.011 21.991C20.263 22.617 21.737 22.617 22.989 21.991L25.4477 20.7616M21 22.9855V27.4331M35.4549 10.7544L38.6664 12.8953C38.744 12.9471 38.7907 13.0343 38.7907 13.1276V17.4259M37.6788 12.9782L34.343 15.202M6.54505 10.7544L3.32155 12.9034C3.25141 12.9501 3.20929 13.0288 3.20929 13.1131V17.4259M3.20929 12.9782L6.54505 15.202M3.20929 28.5451V32.8746C3.20929 32.9485 3.24616 33.0174 3.30752 33.0581L6.54505 35.2166M16.5523 40.7762L20.8924 42.9462C20.9602 42.98 21.0398 42.98 21.1076 42.9462L25.4477 40.7762M21 43V37.4404M35.4549 35.2166L38.7044 33.0501C38.7584 33.0143 38.7907 32.9538 38.7907 32.8891V28.5451" stroke="#FAFAFA" stroke-width="5" stroke-linecap="round" stroke-linejoin="round"/>
</svg>
