<svg width="21" height="21" viewBox="0 0 21 21" fill="none" xmlns="http://www.w3.org/2000/svg">
<path fill-rule="evenodd" clip-rule="evenodd" d="M9.64586 10.9342C9.65088 12.9331 9.65689 16.3293 9.6619 18.9688C13.2759 19.4576 16.89 19.9614 20.498 20.5001C20.498 17.3488 20.502 14.2113 20.498 11.213C16.881 11.213 13.2649 10.9342 9.64586 10.9342ZM0.5 10.9352V17.7218C3.22581 18.0896 5.95163 18.4411 8.67243 18.8429C8.67744 16.2173 8.67043 13.591 8.67043 10.9654C5.94662 10.9704 3.22381 10.9262 0.5 10.9352ZM0.5 3.34335V10.1109C3.22581 10.1179 5.95163 10.0767 8.67744 10.0797C8.67544 7.46012 8.67544 4.84377 8.67243 2.22421C5.94461 2.56502 3.21679 2.92558 0.5 3.34335ZM20.5 9.97177C16.888 9.98576 13.2759 10.0408 9.6619 10.0518C9.6599 7.38931 9.6599 4.72996 9.6619 2.06943C13.2689 1.51873 16.884 1.00081 20.498 0.500092C20.5 3.65835 20.498 6.81351 20.5 9.97177Z" fill="#13161F"/>
</svg>
